<svg width="62" height="32" viewBox="0 0 62 32" fill="none" xmlns="http://www.w3.org/2000/svg">
<g clip-path="url(#clip0_2643_598)">
<path d="M18.1724 22.4609C15.6335 22.4609 13.5679 24.5311 13.5679 27.0756C13.5679 29.62 15.6335 31.6902 18.1724 31.6902C20.7113 31.6902 22.7769 29.62 22.7769 27.0756C22.7769 24.5311 20.7113 22.4609 18.1724 22.4609Z" fill="#FCB615"/>
<path d="M5.30473 22.4609C2.76583 22.4609 0.700195 24.5311 0.700195 27.0756C0.700195 29.62 2.76583 31.6902 5.30473 31.6902C7.84363 31.6902 9.90926 29.62 9.90926 27.0756C9.90926 24.5311 7.84363 22.4609 5.30473 22.4609Z" fill="#ED353F"/>
<path d="M31.0403 22.4609C28.5014 22.4609 26.4358 24.5311 26.4358 27.0756C26.4358 29.62 28.5014 31.6902 31.0403 31.6902C33.5792 31.6902 35.6449 29.62 35.6449 27.0756C35.6449 24.5311 33.5792 22.4609 31.0403 22.4609Z" fill="#02AF56"/>
<path d="M56.7757 22.4609C54.2368 22.4609 52.1711 24.5311 52.1711 27.0756C52.1711 29.62 54.2368 31.6902 56.7757 31.6902C59.3146 31.6902 61.3802 29.62 61.3802 27.0756C61.3802 24.5311 59.3146 22.4609 56.7757 22.4609Z" fill="#00A8DF"/>
<path d="M43.9073 22.4609C41.3684 22.4609 39.3018 24.5311 39.3018 27.0756C39.3018 29.62 41.3674 31.6902 43.9063 31.6902C46.4452 31.6902 48.5108 29.62 48.5108 27.0756C48.5119 24.5311 46.4473 22.4609 43.9073 22.4609Z" fill="#A14699"/>
<path d="M9.14276 9.38629C9.14276 7.2281 7.51836 5.60014 5.3649 5.60014C3.21143 5.60014 1.58703 7.2281 1.58703 9.38629C1.58703 11.5434 3.21143 13.1724 5.3649 13.1724C7.51733 13.1724 9.14276 11.5434 9.14276 9.38629ZM0.00292969 9.38629C0.00292969 6.39444 2.39923 4.13477 5.3649 4.13477C8.3502 4.13477 10.7269 6.37373 10.7269 9.36557V13.9657C10.7269 14.4338 10.4014 14.759 9.91466 14.759C9.4073 14.759 9.10246 14.4338 9.10246 13.9657V12.6225H9.02083C8.39153 13.7016 7.1319 14.6378 5.26363 14.6378C2.3796 14.6378 0.00292969 12.3988 0.00292969 9.38629Z" fill="#595A5A"/>
<path d="M21.9785 9.38537C21.9785 7.22718 20.3541 5.59922 18.2006 5.59922C16.0471 5.59922 14.4227 7.22718 14.4227 9.38537C14.4227 11.5425 16.0471 13.1715 18.2006 13.1715C20.3541 13.1715 21.9785 11.5425 21.9785 9.38537ZM14.9105 18.0357C14.4837 17.8317 14.2812 17.4651 14.4434 17.0384C14.6056 16.59 15.0117 16.4078 15.4385 16.6107C16.1701 16.9566 17.0836 17.201 18.058 17.201C20.475 17.201 21.9371 15.7553 21.9371 13.2927V12.6206H21.8555C21.2262 13.6997 19.9666 14.6359 18.0983 14.6359C15.2143 14.6359 12.8386 12.3969 12.8386 9.38433C12.8386 6.39249 15.2349 4.13281 18.2006 4.13281C21.1859 4.13281 23.5626 6.37178 23.5626 9.36362V13.1902C23.5626 16.4875 21.4504 18.7058 17.9981 18.7058C16.942 18.7068 15.8859 18.5038 14.9105 18.0357Z" fill="#595A5A"/>
<path d="M34.8163 9.38629C34.8163 7.2281 33.1919 5.60014 31.0384 5.60014C28.885 5.60014 27.2606 7.2281 27.2606 9.38629C27.2606 11.5434 28.885 13.1724 31.0384 13.1724C33.1919 13.1724 34.8163 11.5434 34.8163 9.38629ZM25.6775 9.38629C25.6775 6.39444 28.0542 4.13477 31.0395 4.13477C34.0248 4.13477 36.4014 6.39341 36.4014 9.38629C36.4014 12.3781 34.0248 14.6378 31.0395 14.6378C28.0531 14.6378 25.6775 12.3781 25.6775 9.38629Z" fill="#595A5A"/>
<path d="M47.6503 9.38356C47.6503 7.22537 46.0259 5.59741 43.8724 5.59741C41.7189 5.59741 40.0945 7.22537 40.0945 9.38356C40.0945 11.5407 41.7189 13.1697 43.8724 13.1697C46.0259 13.1697 47.6503 11.5407 47.6503 9.38356ZM38.5115 9.38356C38.5115 6.39172 40.8675 4.13204 43.7722 4.13204C45.6404 4.13204 46.9001 5.06822 47.5294 6.14731H47.611V0.794304C47.611 0.326214 47.9365 0 48.4232 0C48.9306 0 49.2354 0.326214 49.2354 0.794304V9.40324C49.2354 12.3951 46.8587 14.634 43.8734 14.634C40.9078 14.6351 38.5115 12.3754 38.5115 9.38356Z" fill="#595A5A"/>
<path d="M60.4887 9.38629C60.4887 7.2281 58.8643 5.60014 56.7108 5.60014C54.5574 5.60014 52.933 7.2281 52.933 9.38629C52.933 11.5434 54.5574 13.1724 56.7108 13.1724C58.8633 13.1724 60.4887 11.5434 60.4887 9.38629ZM51.3489 9.38629C51.3489 6.39444 53.7452 4.13477 56.7108 4.13477C59.6961 4.13477 62.0728 6.37373 62.0728 9.36557V13.9657C62.0728 14.4338 61.7473 14.759 61.2606 14.759C60.7532 14.759 60.4484 14.4338 60.4484 13.9657V12.6225H60.3668C59.7375 13.7016 58.4778 14.6378 56.6096 14.6378C53.7255 14.6378 51.3489 12.3988 51.3489 9.38629Z" fill="#595A5A"/>
</g>
<defs>
<clipPath id="clip0_2643_598">
<rect width="62" height="32" fill="white"/>
</clipPath>
</defs>
</svg>
