<svg width="102" height="32" viewBox="0 0 102 32" fill="none" xmlns="http://www.w3.org/2000/svg">
<g clip-path="url(#clip0_2643_595)">
<path d="M53.7548 8.04199C53.7548 9.19515 52.8307 10.1241 51.6836 10.1241C50.5364 10.1241 49.6124 9.19515 49.6124 8.04199C49.6124 6.88884 50.5046 5.95991 51.6836 5.95991C52.8626 5.99194 53.7548 6.92087 53.7548 8.04199ZM45.215 12.2382C45.215 12.4304 45.215 12.7507 45.215 12.7507C45.215 12.7507 44.2272 11.4694 42.1241 11.4694C38.6508 11.4694 35.9423 14.1281 35.9423 17.8118C35.9423 21.4634 38.6189 24.1541 42.1241 24.1541C44.259 24.1541 45.215 22.8408 45.215 22.8408V23.3853C45.215 23.6416 45.4062 23.8338 45.6611 23.8338H48.2422V11.7897C48.2422 11.7897 45.8842 11.7897 45.6611 11.7897C45.4062 11.7897 45.215 12.014 45.215 12.2382ZM45.215 19.9579C44.737 20.6626 43.7811 21.2712 42.6339 21.2712C40.5946 21.2712 39.0332 19.9899 39.0332 17.8118C39.0332 15.6336 40.5946 14.3523 42.6339 14.3523C43.7492 14.3523 44.7689 14.9929 45.215 15.6656V19.9579ZM50.1541 11.7897H53.2131V23.8338H50.1541V11.7897ZM95.8485 11.4694C93.7454 11.4694 92.7576 12.7507 92.7576 12.7507V5.99194H89.6986V23.8338C89.6986 23.8338 92.0566 23.8338 92.2797 23.8338C92.5346 23.8338 92.7258 23.6096 92.7258 23.3853V22.8408C92.7258 22.8408 93.7136 24.1541 95.8167 24.1541C99.29 24.1541 101.998 21.4634 101.998 17.8118C101.998 14.1601 99.29 11.4694 95.8485 11.4694ZM95.3387 21.2392C94.1597 21.2392 93.2356 20.6306 92.7576 19.9259V15.6336C93.2356 14.9929 94.2553 14.3203 95.3387 14.3203C97.3781 14.3203 98.9394 15.6016 98.9394 17.7797C98.9394 19.9579 97.3781 21.2392 95.3387 21.2392ZM88.1053 16.6906V23.8658H85.0463V17.043C85.0463 15.057 84.409 14.2562 82.6883 14.2562C81.7642 14.2562 80.8082 14.7367 80.2028 15.4414V23.8338H77.1438V11.7897H79.5655C79.8204 11.7897 80.0116 12.014 80.0116 12.2382V12.7507C80.9038 11.8218 82.0828 11.4694 83.2618 11.4694C84.6002 11.4694 85.7154 11.8538 86.6077 12.6226C87.6911 13.5195 88.1053 14.6726 88.1053 16.6906ZM69.7192 11.4694C67.6161 11.4694 66.6283 12.7507 66.6283 12.7507V5.99194H63.5693V23.8338C63.5693 23.8338 65.9273 23.8338 66.1503 23.8338C66.4052 23.8338 66.5964 23.6096 66.5964 23.3853V22.8408C66.5964 22.8408 67.5842 24.1541 69.6873 24.1541C73.1606 24.1541 75.8692 21.4634 75.8692 17.8118C75.901 14.1601 73.1925 11.4694 69.7192 11.4694ZM69.2094 21.2392C68.0304 21.2392 67.1063 20.6306 66.6283 19.9259V15.6336C67.1063 14.9929 68.126 14.3203 69.2094 14.3203C71.2487 14.3203 72.8101 15.6016 72.8101 17.7797C72.8101 19.9579 71.2487 21.2392 69.2094 21.2392ZM60.9245 11.4694C61.8485 11.4694 62.3265 11.6296 62.3265 11.6296V14.4804C62.3265 14.4804 59.7773 13.6156 58.1841 15.4414V23.8658H55.125V11.7897C55.125 11.7897 57.483 11.7897 57.7061 11.7897C57.961 11.7897 58.1522 12.014 58.1522 12.2382V12.7507C58.7258 12.078 59.9685 11.4694 60.9245 11.4694ZM29.155 22.7447C28.9957 22.3603 28.8364 21.9439 28.677 21.5915C28.4221 21.015 28.1672 20.4704 27.9441 19.9579L27.9123 19.9259C25.7136 15.1211 23.3556 10.2522 20.8701 5.4474L20.7745 5.25521C20.5196 4.77473 20.2647 4.26221 20.0097 3.7497C19.6911 3.17312 19.3724 2.56452 18.8626 1.98794C17.8429 0.706658 16.3771 0.00195312 14.8157 0.00195312C13.2225 0.00195312 11.7886 0.706658 10.737 1.92387C10.259 2.50045 9.90853 3.10906 9.58988 3.68564C9.33496 4.19815 9.08004 4.71066 8.82512 5.19114L8.72952 5.38333C6.27592 10.1881 3.88604 15.057 1.68735 19.8618L1.65549 19.9259C1.43243 20.4384 1.17751 20.9829 0.922591 21.5595C0.763266 21.9119 0.603941 22.2962 0.444616 22.7127C0.0303701 23.8978 -0.0970901 25.019 0.0622351 26.1721C0.412751 28.5745 2.006 30.5925 4.20469 31.4894C5.03318 31.8418 5.89354 32.002 6.78576 32.002C7.04068 32.002 7.35933 31.9699 7.61425 31.9379C8.66579 31.8098 9.74921 31.4574 10.8008 30.8488C12.1072 30.1121 13.35 29.055 14.752 27.5175C16.1541 29.055 17.4287 30.1121 18.7033 30.8488C19.7548 31.4574 20.8382 31.8098 21.8898 31.9379C22.1447 31.9699 22.4634 32.002 22.7183 32.002C23.6105 32.002 24.5027 31.8418 25.2993 31.4894C27.5299 30.5925 29.0913 28.5425 29.4418 26.1721C29.6967 25.051 29.5693 23.9299 29.155 22.7447ZM14.7839 24.4104C13.0632 22.2322 11.9479 20.1821 11.5655 18.4524C11.4062 17.7157 11.3743 17.075 11.4699 16.4984C11.5336 15.9859 11.7248 15.5375 11.9798 15.1531C12.5852 14.2882 13.6049 13.7437 14.7839 13.7437C15.9629 13.7437 17.0144 14.2562 17.588 15.1531C17.8429 15.5375 18.0341 15.9859 18.0978 16.4984C18.1934 17.075 18.1616 17.7477 18.0023 18.4524C17.6199 20.1501 16.5046 22.2001 14.7839 24.4104ZM27.498 25.9159C27.275 27.5815 26.1597 29.023 24.5983 29.6636C23.8336 29.9839 23.0051 30.08 22.1766 29.9839C21.3799 29.8878 20.5833 29.6316 19.7548 29.1511C18.6077 28.5105 17.4605 27.5175 16.1222 26.044C18.2253 23.4494 19.4999 21.079 19.9779 18.9649C20.2009 17.9719 20.2328 17.075 20.1372 16.2422C20.0097 15.4414 19.723 14.7047 19.2769 14.064C18.289 12.6226 16.6321 11.7897 14.7839 11.7897C12.9357 11.7897 11.2787 12.6546 10.2909 14.064C9.8448 14.7047 9.55802 15.4414 9.43056 16.2422C9.3031 17.075 9.33496 18.004 9.58988 18.9649C10.0679 21.079 11.3743 23.4814 13.4456 26.076C12.1391 27.5495 10.9601 28.5425 9.81294 29.1831C8.98444 29.6636 8.18782 29.9199 7.39119 30.016C6.53084 30.1121 5.70235 29.9839 4.96945 29.6956C3.40806 29.055 2.29279 27.6136 2.06973 25.9479C1.97414 25.1471 2.03787 24.3463 2.35652 23.4494C2.45211 23.1291 2.61144 22.8088 2.77076 22.4244C2.99382 21.9119 3.24874 21.3673 3.50366 20.8228L3.53552 20.7587C5.73421 15.9859 8.09222 11.1171 10.5458 6.37633L10.6414 6.18413C10.8963 5.70365 11.1513 5.19114 11.4062 4.71066C11.6611 4.19815 11.9479 3.71767 12.2984 3.30125C12.9676 2.53248 13.8598 2.11607 14.8476 2.11607C15.8354 2.11607 16.7276 2.53248 17.3968 3.30125C17.7473 3.71767 18.0341 4.19815 18.289 4.71066C18.544 5.19114 18.7989 5.70365 19.0538 6.18413L19.1494 6.37633C21.5711 11.1491 23.9291 16.018 26.1278 20.7907V20.8228C26.3828 21.3353 26.6058 21.9119 26.8607 22.4244C27.0201 22.8088 27.1794 23.1291 27.275 23.4494C27.5299 24.2822 27.6255 25.083 27.498 25.9159Z" fill="#FF385C"/>
</g>
<defs>
<clipPath id="clip0_2643_595">
<rect width="102" height="32" fill="white"/>
</clipPath>
</defs>
</svg>
