<svg width="18" height="18" viewBox="0 0 18 18" fill="none" xmlns="http://www.w3.org/2000/svg">
<path fill-rule="evenodd" clip-rule="evenodd" d="M0 9.5625C0 9.48994 0.0129375 9.41738 0.041625 9.34706C0.129375 9.13838 0.334125 9 0.5625 9H5.625V0.5625C5.625 0.252562 5.87531 0 6.1875 0H11.8125C12.1224 0 12.375 0.252562 12.375 0.5625V9H17.4375C17.6636 9 17.8706 9.13838 17.9561 9.34706C17.9848 9.41738 18 9.48994 18 9.5625C18 9.70988 17.9426 9.85275 17.8352 9.96019L9.39769 17.8352C9.288 17.9449 9.14288 18 9 18C8.85488 18 8.712 17.9449 8.60231 17.8352L0.164813 9.96019C0.057375 9.85275 0 9.70988 0 9.5625Z" fill="black"/>
</svg>
