<svg width="33" height="33" viewBox="0 0 33 33" fill="none" xmlns="http://www.w3.org/2000/svg">
<path d="M32.112 19.4963L29.8023 19.0208C29.6665 18.6811 29.5306 18.3415 29.3947 18.0018L30.6854 16.0318C30.8892 15.7601 30.8213 15.4204 30.6175 15.1487L28.4437 12.9749C28.4437 12.9749 28.3758 12.9749 28.3758 12.907C29.2589 12.5673 30.074 12.0918 30.7534 11.3445C32.3837 9.71418 33.063 7.33659 32.5196 5.02692C32.4516 4.75519 32.2478 4.61933 32.0441 4.5514C31.8403 4.48347 31.5685 4.5514 31.3647 4.75519L27.9682 8.15176L24.5716 4.75519L27.9682 1.35863C28.172 1.15483 28.2399 0.951039 28.172 0.679313C28.104 0.475519 27.9002 0.271725 27.6964 0.203794C27.0851 0.0679314 26.5416 0 25.9982 0C24.2319 0 22.5337 0.679314 21.3109 1.97001C20.6316 2.64932 20.0881 3.4645 19.7485 4.34761C19.7485 4.34761 19.7485 4.27968 19.6805 4.27968L17.5067 2.10587C17.3029 1.90208 16.8954 1.83415 16.6236 2.03794L14.6536 3.32864C14.314 3.19277 13.9743 2.98898 13.6347 2.92105L13.1591 0.543451C13.0912 0.203794 12.8195 0 12.4798 0H9.35498C9.01532 0 8.7436 0.203794 8.67567 0.543451L8.20015 2.85312C7.86049 2.98898 7.52083 3.12484 7.18118 3.2607L5.21117 1.97001C4.93944 1.83415 4.53186 1.83415 4.32806 2.10587L2.15426 4.27968C1.88253 4.48347 1.88253 4.89106 2.01839 5.16278L3.30909 7.13279C3.17323 7.47245 3.03737 7.81211 2.9015 8.15176L0.591837 8.62728C0.25218 8.69521 0.0483857 8.96694 0.0483857 9.30659V12.4314C0.0483857 12.7711 0.25218 13.0428 0.591837 13.1107L2.9015 13.5863C3.03737 13.9259 3.17323 14.2656 3.30909 14.6052L2.01839 16.5752C1.8146 16.847 1.88253 17.1866 2.08633 17.4584L4.26013 19.6322C4.26013 19.6322 4.32806 19.6322 4.32806 19.7001C3.44495 20.0397 2.62978 20.5153 1.95046 21.2625C0.320111 22.8929 -0.359202 25.2705 0.184248 27.5801C0.25218 27.8519 0.455974 27.9877 0.659768 28.0556C0.863562 28.1236 1.13529 28.0556 1.33908 27.8519L4.73565 24.4553L8.13222 27.8519L4.73565 31.2484C4.53186 31.4522 4.46392 31.656 4.53186 31.9277C4.59979 32.1315 4.80358 32.3353 5.00737 32.4033C5.61876 32.5391 6.16221 32.607 6.70566 32.607C8.47187 32.607 10.1702 31.9277 11.3929 30.637C12.0722 29.9577 12.6157 29.1425 12.9553 28.2594C12.9553 28.2594 12.9553 28.3274 13.0233 28.3274L15.1971 30.5012C15.4009 30.705 15.8085 30.7729 16.0802 30.5691L18.0502 29.2784C18.3899 29.4143 18.7295 29.6181 19.0692 29.686L19.5447 31.9957C19.6126 32.3353 19.8843 32.5391 20.224 32.5391H23.3488C23.6885 32.5391 23.9602 32.3353 24.0282 31.9957L24.5037 29.686C24.8433 29.5501 25.183 29.4143 25.5226 29.2784L27.4927 30.5691C27.7644 30.7729 28.104 30.705 28.3758 30.5012L30.5496 28.3274C30.7534 28.1236 30.8213 27.716 30.6175 27.4443L29.3268 25.4743C29.4627 25.1346 29.5985 24.7949 29.7344 24.4553L32.0441 23.9798C32.3837 23.9118 32.5875 23.6401 32.5875 23.3005V20.1756C32.6554 19.836 32.4516 19.5642 32.112 19.4963ZM19.4088 5.70623C19.273 6.52141 19.3409 7.40452 19.5447 8.28762L18.9333 8.15176C18.7974 7.81211 18.6616 7.47245 18.5257 7.13279L19.4088 5.70623ZM3.51288 16.9149L4.73565 15.0128C4.87151 14.809 4.87151 14.5373 4.73565 14.3335C4.46392 13.858 4.26013 13.3825 4.12427 12.839C4.05634 12.5673 3.85254 12.4314 3.58082 12.3635L1.40701 11.888V9.91798L3.58082 9.44246C3.85254 9.37453 4.05634 9.23866 4.12427 8.96694C4.26013 8.42349 4.46392 7.88004 4.73565 7.47245C4.87151 7.26865 4.87151 6.99693 4.73565 6.79313L3.51288 4.82313L4.93944 3.39657L6.84152 4.61933C7.04531 4.75519 7.31704 4.75519 7.52083 4.61933C7.99635 4.34761 8.47187 4.14381 9.01532 4.00795C9.28705 3.94002 9.42291 3.73622 9.49084 3.4645L9.89843 1.35863H11.8684L12.344 3.53243C12.4119 3.80416 12.5478 4.00795 12.8195 4.07588C13.3629 4.21174 13.8385 4.41554 14.314 4.68726C14.5178 4.82313 14.7895 4.82313 14.9933 4.68726L16.8954 3.4645L18.3219 4.89106L17.0992 6.7252C16.9633 6.929 16.9633 7.20072 17.0992 7.40452C17.3709 7.88004 17.5747 8.42349 17.7105 8.89901C17.7785 9.17073 17.9823 9.30659 18.254 9.37453L18.4578 9.44246L14.3819 13.5183C14.9933 12.7711 15.3329 11.8201 15.3329 10.8011C15.3329 8.35556 13.3629 6.38555 10.9174 6.38555C8.47187 6.38555 6.50186 8.35556 6.50186 10.8011C6.50186 13.2466 8.47187 15.2166 10.9174 15.2166C11.9364 15.2166 12.8874 14.877 13.6347 14.2656L9.55877 18.3415L9.49084 18.1377C9.42291 17.8659 9.28705 17.6621 9.01532 17.5942C8.47187 17.4584 7.92842 17.2546 7.52083 16.9828C7.38497 16.9828 7.24911 16.9828 7.11325 16.9828C6.97738 16.9828 6.84152 17.0508 6.77359 17.1187L4.87151 18.3415L3.51288 16.9149ZM13.9743 10.869C13.9743 12.5673 12.6157 13.9259 10.9174 13.9259C9.21912 13.9259 7.86049 12.5673 7.86049 10.869C7.86049 9.17073 9.21912 7.81211 10.9174 7.81211C12.6157 7.81211 13.9743 9.17073 13.9743 10.869ZM8.33601 19.4963C7.79256 19.3604 7.24911 19.2925 6.70566 19.2925C6.366 19.2925 6.09428 19.2925 5.75462 19.3604L7.18118 18.4094C7.52083 18.5453 7.86049 18.6811 8.20015 18.817L8.33601 19.4963ZM11.8684 23.5722C11.6646 23.776 11.5967 24.0477 11.7326 24.2515C12.4119 26.1536 11.8684 28.2594 10.4419 29.686C9.42291 30.705 8.13222 31.2484 6.70566 31.2484L9.55877 28.3953C9.69464 28.2594 9.76257 28.1236 9.76257 27.9198C9.76257 27.716 9.69464 27.5801 9.55877 27.4443L5.21117 23.0967C5.07531 22.9608 4.87151 22.8929 4.73565 22.8929C4.59979 22.8929 4.39599 22.9608 4.26013 23.0967L1.40701 25.9498C1.40701 24.5911 1.95046 23.2325 2.96943 22.2136C3.9884 21.1946 5.2791 20.6511 6.70566 20.6511C7.31704 20.6511 7.86049 20.7191 8.40394 20.9229C8.67567 20.9908 8.94739 20.9229 9.08326 20.787L20.7674 9.1028C20.9712 8.89901 21.0392 8.62728 20.9033 8.42349C20.224 6.52141 20.7674 4.41554 22.194 2.98898C23.213 1.90208 24.5716 1.35863 25.9982 1.35863L23.145 4.21174C23.0092 4.34761 22.9413 4.48347 22.9413 4.68726C22.9413 4.89106 23.0092 5.02692 23.145 5.16278L27.4927 9.51039C27.7644 9.78211 28.172 9.78211 28.4437 9.51039L31.2968 6.65727C31.2968 8.0159 30.7534 9.37453 29.7344 10.3935C28.7154 11.4125 27.4247 11.9559 25.9982 11.9559C25.3868 11.9559 24.8433 11.888 24.2999 11.6842C24.0282 11.6163 23.7564 11.6842 23.6206 11.8201L11.8684 23.5722ZM26.9492 13.2466L25.5226 14.1977C25.183 14.0618 24.8433 13.9259 24.5037 13.7901L24.3678 13.1787C24.9113 13.3145 25.4547 13.3825 25.9982 13.3825C26.3378 13.3145 26.6095 13.3145 26.9492 13.2466ZM13.295 26.9008C13.4309 26.0856 13.3629 25.2025 13.1591 24.3194L13.7705 24.4553C13.9064 24.7949 14.0422 25.1346 14.1781 25.4743L13.295 26.9008ZM31.2968 22.757L29.123 23.2325C28.8513 23.3005 28.6475 23.4363 28.5796 23.708C28.4437 24.2515 28.2399 24.7949 27.9682 25.2025C27.8323 25.4063 27.8323 25.678 27.9682 25.8818L29.1909 27.716L27.7644 29.1425L25.8623 27.9198C25.6585 27.7839 25.3868 27.7839 25.183 27.9198C24.7075 28.1915 24.2319 28.3953 23.6885 28.5312C23.4168 28.5991 23.2809 28.8029 23.213 29.0746L22.8054 31.2484H20.8354L20.3599 29.0746C20.2919 28.8029 20.1561 28.5991 19.8843 28.5312C19.3409 28.3953 18.8654 28.1915 18.3899 27.9198C18.1861 27.7839 17.9143 27.7839 17.7105 27.9198L15.8085 29.1425L14.3819 27.716L15.6047 25.8818C15.7405 25.678 15.7405 25.4063 15.6047 25.2025C15.3329 24.727 15.1291 24.1836 14.9933 23.708C14.9254 23.4363 14.7216 23.3005 14.4498 23.2325L14.246 23.1646L18.3219 19.0887C17.7105 19.836 17.3709 20.787 17.3709 21.806C17.3709 24.2515 19.3409 26.2215 21.7864 26.2215C24.2319 26.2215 26.202 24.2515 26.202 21.806C26.202 19.3604 24.2319 17.3904 21.7864 17.3904C20.7674 17.3904 19.8164 17.7301 19.0692 18.3415L23.145 14.2656L23.213 14.4694C23.2809 14.7411 23.4168 14.9449 23.6885 15.0128C24.2319 15.1487 24.7754 15.3525 25.183 15.6242C25.3868 15.7601 25.6585 15.7601 25.8623 15.6242L27.7644 14.4014L29.1909 15.828L27.9682 17.7301C27.8323 17.9339 27.8323 18.2056 27.9682 18.4094C28.2399 18.8849 28.4437 19.3604 28.5796 19.9039C28.6475 20.1756 28.8513 20.3115 29.123 20.3794L31.2968 20.8549V22.757ZM18.7295 21.738C18.7295 20.0397 20.0881 18.6811 21.7864 18.6811C23.4847 18.6811 24.8433 20.0397 24.8433 21.738C24.8433 23.4363 23.4847 24.7949 21.7864 24.7949C20.0881 24.7949 18.7295 23.4363 18.7295 21.738Z" fill="black"/>
</svg>
