<svg width="110" height="30" viewBox="0 0 110 30" fill="none" xmlns="http://www.w3.org/2000/svg">
<g clip-path="url(#clip0_2643_632)">
<path d="M75.6682 20.1683C75.6184 20.1932 75.5437 20.243 75.4939 20.2928C74.6972 21.3386 73.4273 21.961 72.1077 21.9112C70.9125 21.9859 69.7422 21.7619 68.6716 21.239C66.9535 20.3924 65.8082 18.6993 65.609 16.8069C65.5343 16.3089 65.5094 15.811 65.5094 15.313V9.11309C65.5094 8.29142 65.7584 8.04242 66.58 8.04242H68.3977C69.1198 8.04242 69.4185 8.36611 69.4185 9.08819V15.3877C69.3936 16.2093 69.6426 17.031 70.1655 17.7033C71.4105 19.0727 73.502 19.1723 74.8715 17.9274C75.1951 17.6286 75.469 17.2551 75.6682 16.8567C75.7429 16.6575 75.7678 16.4583 75.7678 16.2591V9.08819C75.7678 8.21672 76.0168 7.96773 76.8883 7.96773H78.6561C79.3782 7.96773 79.7019 8.29142 79.7019 9.01349V22.459C79.8015 24.9489 78.4071 27.2895 76.1662 28.385C74.7221 29.132 73.1036 29.4308 71.4852 29.2814C70.4892 29.2565 69.5181 29.0075 68.5969 28.6091C67.7503 28.3601 67.2025 27.5136 67.327 26.6421V25.6212C67.2772 25.2726 67.5262 24.924 67.8748 24.8742C68.0242 24.8493 68.1985 24.8991 68.323 24.9738C68.821 25.1979 69.2941 25.4967 69.8169 25.6959C70.9623 26.169 72.2073 26.2437 73.4024 25.9449C74.747 25.6212 75.6931 24.4012 75.6931 23.0317V20.3675C75.6682 20.2928 75.6682 20.243 75.6682 20.1683ZM36.1284 8.34121C36.7758 8.09222 37.4231 7.86813 38.0954 7.66894C39.6143 7.27055 41.2327 7.29545 42.7516 7.79343C44.9925 8.54041 46.6109 10.5074 46.9097 12.8231C47.1587 14.1178 47.1089 15.4375 46.7603 16.7073C46.1876 18.774 44.619 20.4422 42.6022 21.1643C39.8135 22.3594 36.6015 22.0606 34.0618 20.4173C33.6634 20.1434 33.3148 19.8446 32.9911 19.5209C32.5429 19.0976 32.2939 18.525 32.269 17.9274V2.66421C32.2441 2.14133 32.518 1.64334 32.9911 1.39435L34.983 0.224092C35.6553 -0.149395 36.1284 0.224092 36.1284 0.896369V8.34121ZM36.1284 14.7154V17.4294C36.1035 17.6784 36.228 17.9274 36.4521 18.0519C37.4729 18.7491 38.7179 18.998 39.938 18.7491C41.1829 18.5997 42.2536 17.7531 42.6769 16.5579C42.9757 15.7861 43.1002 14.9395 43.0255 14.1178C43.0006 13.0969 42.5524 12.101 41.7805 11.4287C40.1621 10.2833 37.9709 10.3331 36.4023 11.5283C36.2778 11.6777 36.2031 11.852 36.2031 12.0263C36.1284 12.8978 36.1284 13.819 36.1284 14.7154ZM16.7569 0C21.7118 0.174294 25.9446 3.68507 26.9904 8.56531C28.1856 13.7692 25.4467 19.0727 20.5166 21.1394C16.4083 22.8325 11.6525 21.7619 8.66463 18.4752C8.06705 17.8029 8.06705 17.8029 7.29518 18.2511L2.36515 21.2141C1.51858 21.7121 1.16999 21.6125 0.67201 20.7659L0.223825 19.9442C-0.099864 19.5458 -0.0500642 18.9482 0.373221 18.5997C0.447919 18.525 0.547515 18.4752 0.622213 18.4503L5.70164 15.4873C6.47351 15.0391 6.44861 15.0391 6.22452 14.2174C4.45668 8.54041 7.56907 2.48991 13.1963 0.57268C13.6694 0.398386 14.1673 0.27389 14.6902 0.199193C15.3874 0.0995964 16.0597 0.0995966 16.7569 0ZM25.1479 11.0303C25.1977 6.24969 21.3881 2.31562 16.6324 2.21602C11.9015 2.21602 8.01726 6.00069 7.91766 10.7315C7.71847 15.5371 11.4782 19.5956 16.2838 19.7948C16.3087 19.7948 16.3585 19.7948 16.3834 19.7948C21.1889 19.8446 25.123 15.9853 25.1479 11.1797C25.1479 11.105 25.1479 11.0552 25.1479 11.0303ZM59.2099 20.0189C59.1352 20.0687 59.0605 20.1185 58.9858 20.1932C58.3384 21.1145 57.3425 21.7121 56.222 21.8117C53.9562 22.2598 51.6157 21.488 50.047 19.7699C49.0759 18.6495 48.4784 17.2551 48.3788 15.7861C48.1796 14.2672 48.4037 12.7235 49.0759 11.354C49.9972 9.51147 51.7153 8.19182 53.7072 7.76853C56.3465 7.04646 59.1601 7.39505 61.5255 8.7147L61.7745 8.8641C62.6709 9.31228 63.1938 10.2584 63.1191 11.2544V20.243C63.144 20.4422 63.144 20.6663 63.1191 20.8655C63.0693 21.239 62.7456 21.5129 62.3721 21.488H60.0316C59.5336 21.488 59.2597 21.1643 59.2099 20.6165V20.0189ZM59.2099 11.6777C59.2348 11.4038 59.0854 11.1299 58.8364 11.0054C58.2139 10.6817 57.4919 10.5074 56.7947 10.4825C54.8525 10.134 52.9602 11.3789 52.4871 13.2961C52.263 14.2174 52.263 15.1885 52.4871 16.1346C53.01 18.0519 54.977 19.1972 56.8943 18.6744C57.4421 18.525 57.94 18.2511 58.3633 17.8776C58.936 17.4543 59.2597 16.782 59.2099 16.0599C59.1601 14.6158 59.1601 13.1467 59.2099 11.6777ZM92.4254 20.0189C92.3507 20.0687 92.2511 20.1434 92.1764 20.2181C91.5788 21.0896 90.6575 21.6623 89.6118 21.8117C87.9684 22.1353 86.2753 21.8366 84.8311 20.99C83.3621 20.0438 82.4159 18.4752 82.2416 16.7322C82.1669 16.2342 82.142 15.7363 82.142 15.2383V9.03839C82.142 8.21672 82.391 7.96773 83.2127 7.96773H85.0552C85.5283 7.91793 85.9516 8.29142 86.0014 8.7645C86.0014 8.8392 86.0014 8.93879 85.9765 9.01349V15.3628C85.9516 16.2342 86.2255 17.1057 86.7733 17.778C88.068 19.0976 90.2093 19.1225 91.529 17.8029C91.8029 17.529 92.0519 17.2053 92.2013 16.8318C92.2262 16.6575 92.2262 16.4832 92.2013 16.3338V9.08819C92.2013 8.26652 92.4752 7.99263 93.3217 7.99263H95.0896C95.8116 7.99263 96.1104 8.31631 96.1104 9.03839V20.4422C96.1104 21.239 95.8116 21.5378 95.0398 21.5378H93.3964C92.6743 21.5378 92.4005 21.2639 92.4005 20.5418C92.4254 20.5418 92.4254 20.0189 92.4254 20.0189ZM98.8244 10.3331V4.95493C98.7995 4.45695 99.0485 3.98386 99.4967 3.75977L101.489 2.58951L101.663 2.48991C101.987 2.31562 102.41 2.44012 102.584 2.7638C102.659 2.8883 102.684 3.0128 102.659 3.13729V7.41995C102.659 7.91793 102.659 7.94283 103.182 7.94283H108.236C109.232 7.94283 109.431 8.14202 109.456 9.13799V10.0842C109.456 10.7315 109.158 11.0303 108.51 11.0303H103.207C102.634 11.0303 102.634 11.0303 102.634 11.603V15.1387C102.634 15.6367 102.709 16.1346 102.858 16.6326C103.306 18.0768 104.75 18.998 106.269 18.774C107.066 18.7242 107.813 18.4254 108.411 17.9025L108.61 17.778C108.834 17.5539 109.158 17.5041 109.431 17.6286C109.73 17.8029 109.705 18.0768 109.705 18.3507V19.6205C109.73 20.1434 109.456 20.6663 109.008 20.9402C108.037 21.5876 106.867 21.9112 105.697 21.9112C104.402 21.961 103.107 21.6872 101.937 21.0896C100.244 20.1434 99.1481 18.4503 98.9738 16.533C98.8742 15.5371 98.8244 14.566 98.8493 13.57C98.7995 12.4496 98.8244 11.4038 98.8244 10.3331Z" fill="#28B16D"/>
<path d="M22.1596 12.0513V14.84C22.1596 15.4874 21.8857 15.7364 21.2632 15.7364H19.1219C18.6239 15.7364 18.3998 15.5372 18.3998 15.0143V12.7734C18.3749 11.8521 17.7027 11.0553 16.7814 10.9308C15.8103 10.8063 14.914 11.4537 14.7148 12.4248C14.6899 12.7734 14.6899 13.0971 14.7148 13.4456V15.0143C14.7148 15.5372 14.4907 15.7862 13.9678 15.7862H11.7518C11.3036 15.836 10.9052 15.5123 10.8554 15.089C10.8554 15.0392 10.8554 14.9894 10.8554 14.9396V9.38709C10.8305 8.9389 11.0546 8.54052 11.453 8.34132C12.8473 7.54455 14.2417 6.74778 15.6111 5.90121C16.1589 5.52772 16.8561 5.52772 17.4039 5.90121C18.7982 6.74778 20.2175 7.56945 21.6367 8.39112C21.9604 8.56542 22.1596 8.914 22.1347 9.28749V12.126L22.1596 12.0513Z" fill="#28B16D"/>
</g>
<defs>
<clipPath id="clip0_2643_632">
<rect width="109.731" height="29.3312" fill="white"/>
</clipPath>
</defs>
</svg>
