<svg width="110" height="18" viewBox="0 0 110 18" fill="none" xmlns="http://www.w3.org/2000/svg">
<g clip-path="url(#clip0_2643_657)">
<path d="M43.1819 1.62946C43.1819 0.691964 43.9506 -0.022321 44.8549 -0.022321C45.7592 -0.022321 46.5278 0.736607 46.5278 1.62946C46.5278 2.52232 45.7592 3.28125 44.8549 3.28125C43.9053 3.28125 43.1819 2.52232 43.1819 1.62946Z" fill="#003479"/>
<path d="M69.5884 12.6119C69.5884 11.6744 70.357 10.9601 71.2614 10.9601C72.1657 10.9601 72.9343 11.719 72.9343 12.6119C72.9343 13.5047 72.1657 14.2637 71.2614 14.2637C70.3118 14.2637 69.5884 13.5494 69.5884 12.6119Z" fill="#009FE3"/>
<path d="M15.7362 11.8976C14.2893 11.8976 13.2946 10.7815 13.2946 9.17439C13.2946 7.56724 14.2893 6.45117 15.7362 6.45117C17.1831 6.45117 18.1778 7.56724 18.1778 9.17439C18.1778 10.8262 17.1831 11.8976 15.7362 11.8976ZM15.7362 3.99582C12.7068 3.99582 10.4912 6.18332 10.4912 9.12974C10.4912 12.0762 12.7068 14.2637 15.7362 14.2637C18.8108 14.2637 21.0264 12.0762 21.0264 9.12974C21.0264 6.18332 18.7656 3.99582 15.7362 3.99582Z" fill="#003479"/>
<path d="M39.9267 9.44196C39.791 9.21875 39.6554 9.04018 39.5197 8.90625L39.4293 8.81696L39.5197 8.72768C39.6554 8.59375 39.791 8.41518 39.9267 8.19196L42.5944 4.26339H39.3389L37.3042 7.34375C37.1685 7.52232 36.9425 7.61161 36.626 7.61161H36.1738V1.76339C36.1738 0.602678 35.4504 0.424107 34.6365 0.424107H33.28V14.2188H36.1738V10.067H36.4451C36.7616 10.067 36.9877 10.1116 37.1233 10.2902L38.7059 13.2812C39.158 14.0848 39.6102 14.2188 40.4241 14.2188H42.6396L40.9666 11.5402L39.9267 9.44196Z" fill="#003479"/>
<path d="M53.9899 3.99554C52.4978 3.99554 51.5935 4.62054 51.0509 5.20089L50.87 5.37947L50.8248 5.15625C50.6892 4.57589 50.1466 4.26339 49.3779 4.26339H48.0667V14.2188H50.9604V9.57589C50.9604 9.12946 51.0057 8.72768 51.1413 8.37054C51.4578 7.29911 52.3621 6.62946 53.4473 6.62946C54.3516 6.62946 54.7133 7.07589 54.7133 8.32589V12.6562C54.7133 13.683 55.2107 14.1741 56.2507 14.1741H57.6071V7.83482C57.5619 5.33482 56.3411 3.99554 53.9899 3.99554Z" fill="#003479"/>
<path d="M44.9024 4.21652H43.5459V11.8951V14.1719H44.9928H45.038H45.7163H46.3945V5.73438C46.3945 4.70759 45.8971 4.21652 44.9024 4.21652Z" fill="#003479"/>
<path d="M26.994 11.8959C25.5471 11.8959 24.5524 10.7799 24.5524 9.17271C24.5524 7.56557 25.5471 6.4495 26.994 6.4495C28.4409 6.4495 29.4356 7.56557 29.4356 9.17271C29.4809 10.8245 28.4861 11.8959 26.994 11.8959ZM26.994 3.99414C23.9646 3.99414 21.749 6.18164 21.749 9.12807C21.749 12.0745 23.9646 14.3066 26.994 14.3066C30.0686 14.3066 32.2842 12.1191 32.2842 9.17271C32.2842 6.22628 30.0686 3.99414 26.994 3.99414Z" fill="#003479"/>
<path d="M88.619 11.8969C87.1721 11.8969 86.1774 10.7808 86.1774 9.1737C86.1774 7.56656 87.1721 6.45049 88.619 6.45049C90.0659 6.45049 91.0606 7.56656 91.0606 9.1737C91.0606 10.8255 90.0659 11.8969 88.619 11.8969ZM88.619 3.99513C85.5896 3.99513 83.374 6.18263 83.374 9.12906C83.374 12.0755 85.5896 14.263 88.619 14.263C91.6484 14.3076 93.9092 12.1648 93.9092 9.1737C93.9092 6.18263 91.6484 3.99513 88.619 3.99513Z" fill="#009FE3"/>
<path d="M63.6161 11.4936C62.0336 11.4936 61.491 10.1543 61.491 8.85965C61.491 8.2793 61.6267 6.49358 63.4805 6.49358C64.3848 6.49358 65.6056 6.76144 65.6056 8.94894C65.6056 11.0472 64.5204 11.4936 63.6161 11.4936ZM67.0977 4.17216C66.5551 4.17216 66.1482 4.39537 65.9221 4.79716L65.8317 4.93108L65.696 4.79716C65.2439 4.39537 64.3848 3.94894 63.0283 3.94894C60.3606 3.94894 58.552 5.95787 58.552 8.9043C58.552 11.8507 60.4058 13.9489 63.1188 13.9489C64.0231 13.9489 64.7465 13.7257 65.3343 13.3239L65.5604 13.1454V13.4132C65.5604 14.7525 64.7013 15.4668 63.1188 15.4668C62.3501 15.4668 61.6719 15.2882 61.1745 15.1097C60.5867 14.9311 60.225 15.065 59.9537 15.69L59.7276 16.2257L59.4111 17.0293L59.592 17.1186C60.5867 17.6543 61.898 17.9668 63.1188 17.9668C65.5604 17.9668 68.409 16.7168 68.409 13.2347V4.08287L67.0977 4.17216Z" fill="#003479"/>
<path d="M5.01941 11.8133H2.66821V9.04548C2.66821 8.46512 2.89427 8.15262 3.39164 8.06334H4.97418C6.10457 8.06334 6.82803 8.77762 6.82803 9.93834C6.87325 11.0991 6.19501 11.8133 5.01941 11.8133ZM2.66821 4.35798V3.64369C2.66821 3.01869 2.93948 2.70619 3.52728 2.66155H4.7029C5.74286 2.66155 6.33064 3.28655 6.33064 4.26869C6.33064 5.02762 5.92371 5.96512 4.74811 5.96512H2.62298L2.66821 4.35798ZM8.00362 7.12584L7.59667 6.90262L7.95842 6.59012C8.36535 6.23298 9.0888 5.38477 9.0888 4.00084C9.0888 1.81334 7.3706 0.429408 4.74811 0.429408H1.7639H1.40218C0.63352 0.474051 0.000488281 1.09905 0.000488281 1.85798V14.1348H1.40218H4.83854C7.77754 14.1348 9.67659 12.5723 9.67659 10.1169C9.63138 8.82227 9.04357 7.66155 8.00362 7.12584Z" fill="#003479"/>
<path d="M106.707 4.04381C105.532 4.04381 104.356 4.57952 103.633 5.51702L103.407 5.78488L103.226 5.47238C102.683 4.53488 101.779 4.04381 100.513 4.04381C99.1563 4.04381 98.2972 4.75809 97.8451 5.20452L97.5738 5.51702L97.4834 5.11524C97.3477 4.57952 96.8503 4.26702 96.0817 4.26702H94.8608V14.1777H97.619V9.80273C97.619 9.40095 97.6642 9.04381 97.7546 8.64202C98.0259 7.57059 98.7494 6.45452 99.925 6.54381C100.694 6.63309 101.055 7.16881 101.055 8.28488V14.1777H103.814V9.80273C103.814 9.31166 103.859 8.95452 103.949 8.59738C104.175 7.57059 104.944 6.54381 106.074 6.54381C106.933 6.54381 107.25 7.03488 107.25 8.28488V12.7045C107.25 13.6867 107.702 14.1331 108.697 14.1331H110.008V7.79381C110.053 5.29381 108.968 4.04381 106.707 4.04381Z" fill="#009FE3"/>
<path d="M81.7492 10.7416C81.7492 10.7416 80.5736 11.9916 78.991 11.9916C77.5894 11.9916 76.1425 11.1434 76.1425 9.22377C76.1425 7.57199 77.2729 6.41127 78.8554 6.41127C79.3528 6.41127 79.9406 6.58984 80.031 6.90234V6.94699C80.2571 7.66127 80.8901 7.66127 81.0257 7.66127H82.5178V6.36663C82.5178 4.6702 80.3023 4.0452 78.8102 4.0452C75.6451 4.0452 73.3391 6.2327 73.3391 9.22377C73.3391 12.2148 75.5999 14.4023 78.765 14.4023C81.4779 14.4023 82.97 12.6166 82.97 12.6166L83.0604 12.5273L81.8848 10.5631L81.7492 10.7416Z" fill="#009FE3"/>
</g>
<defs>
<clipPath id="clip0_2643_657">
<rect width="110" height="18" fill="white"/>
</clipPath>
</defs>
</svg>
