<svg width="33" height="33" viewBox="0 0 33 33" fill="none" xmlns="http://www.w3.org/2000/svg">
<path fill-rule="evenodd" clip-rule="evenodd" d="M16.3519 0C25.3766 0 32.7038 7.32718 32.7038 16.3519C32.7038 25.3766 25.3766 32.7038 16.3519 32.7038C7.32718 32.7038 0 25.3766 0 16.3519C0 7.32718 7.32718 0 16.3519 0ZM16.3519 2.28166C8.58665 2.28166 2.28166 8.58665 2.28166 16.3519C2.28166 24.1172 8.58665 30.4222 16.3519 30.4222C24.1172 30.4222 30.4222 24.1172 30.4222 16.3519C30.4222 8.58665 24.1172 2.28166 16.3519 2.28166Z" fill="black"/>
<path fill-rule="evenodd" clip-rule="evenodd" d="M27.9135 26.3028C28.3592 26.747 28.3592 27.471 27.9135 27.9152C27.4693 28.3609 26.7453 28.3609 26.3011 27.9152L4.78959 6.40367C4.3439 5.95951 4.3439 5.23546 4.78959 4.79129C5.23375 4.34561 5.9578 4.34561 6.40196 4.79129L27.9135 26.3028Z" fill="black"/>
<path fill-rule="evenodd" clip-rule="evenodd" d="M9.1272 13.3088C9.1272 12.6791 9.63829 12.168 10.268 12.168C10.8978 12.168 11.4089 12.6791 11.4089 13.3088V22.8157H21.2961V13.3088C21.2961 12.6791 21.8072 12.168 22.4369 12.168C23.0666 12.168 23.5777 12.6791 23.5777 13.3088V23.9566C23.5777 24.5863 23.0666 25.0974 22.4369 25.0974H10.268C9.63829 25.0974 9.1272 24.5863 9.1272 23.9566V13.3088Z" fill="black"/>
<path fill-rule="evenodd" clip-rule="evenodd" d="M8.65776 15.7544C8.14818 16.1241 7.43479 16.0115 7.06363 15.5019C6.69401 14.9923 6.80657 14.2789 7.31614 13.9078L15.6822 7.82337C16.0823 7.53284 16.6238 7.53284 17.0238 7.82337L25.3899 13.9078C25.8995 14.2789 26.0121 14.9923 25.6424 15.5019C25.2713 16.0115 24.5579 16.1241 24.0483 15.7544L16.353 10.1567L8.65776 15.7544Z" fill="black"/>
<path fill-rule="evenodd" clip-rule="evenodd" d="M23.9576 22.8164C24.5874 22.8164 25.0985 23.3275 25.0985 23.9572C25.0985 24.587 24.5874 25.0981 23.9576 25.0981H8.74654C8.11681 25.0981 7.60571 24.587 7.60571 23.9572C7.60571 23.3275 8.11681 22.8164 8.74654 22.8164H23.9576Z" fill="black"/>
</svg>
