<svg width="64" height="21" viewBox="0 0 64 21" fill="none" xmlns="http://www.w3.org/2000/svg">
<path d="M41.662 12.3257C41.3536 12.5703 41.1442 12.914 40.7954 13.3556C40.4103 13.8407 40.0337 14.3326 39.6659 14.831C39.2693 15.3728 38.8636 15.9566 38.4618 16.5444C38.0595 17.1322 37.6919 17.6403 37.3699 18.2486H41.765V19.9727H34.9754V18.6628C35.2844 18.1979 35.5291 17.6915 35.883 17.1441C36.237 16.5979 36.6131 16.0476 36.9886 15.4945C37.3529 14.9546 37.7277 14.4219 38.113 13.8967C38.4829 13.3965 38.8186 12.9749 39.1088 12.5698H35.1814V10.8456H41.6626V12.3262L41.662 12.3257ZM49.6858 12.3257C49.4022 12.6643 49.1242 13.0076 48.8521 13.3556C48.474 13.8411 48.1041 14.333 47.7426 14.831C47.3477 15.3728 46.9516 15.9566 46.551 16.5444C46.1504 17.1322 45.792 17.6403 45.4716 18.2486H49.7888V19.9727H43.1028V18.6628C43.4106 18.1979 43.6462 17.6915 43.9984 17.1441C44.3512 16.5979 44.7222 16.0476 45.096 15.4945C45.4579 14.9547 45.8303 14.4219 46.213 13.8967C46.5818 13.3965 46.9135 12.9749 47.202 12.5698H43.3082V10.8456H49.6858V12.3257ZM53.4925 6.58651V19.9733H51.3314V7.18L51.3399 7.17601C51.6734 6.84769 53.1369 6.58594 53.472 6.58594L53.4914 6.58651H53.4925ZM54.6966 15.4507C54.6966 14.6484 54.8178 13.9439 55.0596 13.3385C55.3014 12.7336 55.6229 12.2301 56.0247 11.8289C56.4168 11.4331 56.8874 11.1238 57.4062 10.9207C57.9134 10.7195 58.4539 10.6159 58.9995 10.6152C60.2747 10.6152 61.2699 11.0055 61.9834 11.7851C62.6981 12.5646 63.0549 13.7289 63.0549 15.2766C63.0549 15.3927 63.0521 15.5014 63.0464 15.6465C63.0407 15.7927 63.0316 15.9162 63.0196 16.0175H56.9101C56.9692 16.8289 57.2316 17.3404 57.6981 17.7416C58.1647 18.1433 58.8407 18.355 59.7261 18.355C60.2451 18.355 60.7202 18.3146 61.1515 18.2213C61.5823 18.128 61.9214 18.0318 62.1701 17.9271L62.4529 19.6569C62.2956 19.7304 62.1329 19.7918 61.9664 19.8407C61.7593 19.905 61.5231 19.9636 61.2574 20.016C60.9922 20.0683 60.7054 20.1121 60.3987 20.1468C60.0914 20.1821 59.7785 20.1992 59.4598 20.1992C58.6461 20.1992 57.9371 20.0797 57.3351 19.8413C56.7331 19.6029 56.2369 19.2711 55.8477 18.8466C55.4536 18.4145 55.1576 17.9022 54.9799 17.345C54.791 16.7691 54.6966 16.1381 54.6966 15.4507ZM60.9125 14.4965C60.9125 14.192 60.871 13.9348 60.7885 13.6731C60.713 13.4256 60.5896 13.1954 60.4255 12.9954C60.2661 12.8036 60.0715 12.654 59.8411 12.543C59.6106 12.4321 59.3364 12.378 59.0177 12.378C58.6871 12.378 58.3975 12.4389 58.1499 12.5612C57.9102 12.6773 57.6963 12.8407 57.5212 13.0415C57.3483 13.2402 57.2133 13.469 57.1229 13.7163C57.0278 13.9724 56.9635 14.192 56.9277 14.4959H60.9125V14.4965ZM16.0481 10.8456H18.2081V15.9571C18.2081 16.574 18.1557 17.1407 18.026 17.6585C17.8963 18.1763 17.6937 18.6207 17.3927 18.9934C17.0911 19.3661 16.69 19.6552 16.1881 19.864C15.6868 20.074 14.893 20.1753 14.1493 20.1753C13.4056 20.1753 12.6135 20.074 12.1116 19.8646C11.6097 19.6552 11.2108 19.3673 10.9098 18.9946C10.6088 18.6224 10.3977 18.1775 10.268 17.6597C10.1377 17.1418 10.0813 16.574 10.0813 15.9571V10.8462H12.2419V15.626C12.2419 16.6035 12.3631 17.3023 12.6527 17.7211C12.9412 18.1388 13.4209 18.3482 14.1379 18.3493C14.8549 18.3482 15.3471 18.1388 15.6356 17.7211C15.9252 17.3023 16.0481 16.6035 16.0481 15.626V10.8456ZM0 15.416C0 14.7064 0.0904743 14.0572 0.27313 13.47C0.456355 12.8822 0.718104 12.3786 1.06065 11.9592C1.40487 11.5388 1.84462 11.2067 2.34323 10.9907C2.85648 10.7631 3.43461 10.6499 4.08443 10.6499C4.48615 10.6455 4.88642 10.6986 5.27312 10.8075C5.63331 10.9122 5.96618 11.0283 6.17217 11.1563V7.18L6.18355 7.17601C6.517 6.84769 7.98336 6.58594 8.31795 6.58594L8.33217 6.58651V19.6933C7.92077 19.8214 7.37736 19.938 6.73322 20.0421C6.09023 20.1468 5.41879 20.1992 4.71035 20.1992C3.97802 20.1992 3.32308 20.0888 2.74439 19.868C2.1868 19.6605 1.68184 19.3325 1.2655 18.9075C0.859222 18.4887 0.54626 17.9857 0.327756 17.3973C0.109821 16.8101 0.000569022 16.1495 0.000569022 15.416H0ZM2.19642 15.3813C2.19642 16.3122 2.4172 17.0428 2.86559 17.572C3.31512 18.1018 3.93137 18.3664 4.72174 18.3664C5.06429 18.3664 5.3505 18.3522 5.59234 18.3226C5.83417 18.2941 6.06975 18.2617 6.17274 18.227V12.9721C5.94142 12.8259 5.69297 12.7087 5.43301 12.6232C5.11466 12.5167 4.7809 12.4634 4.44519 12.4656C3.66563 12.4656 3.09661 12.7274 2.73642 13.2514C2.37623 13.7749 2.19585 14.4851 2.19585 15.3813H2.19642ZM28.0231 13.4694C28.2064 14.0572 28.2974 14.7064 28.2974 15.416C28.2974 16.1495 28.1882 16.8101 27.9702 17.3973C27.7517 17.9857 27.4388 18.4887 27.0313 18.9075C26.6152 19.3325 26.1104 19.6604 25.553 19.868C24.9743 20.0888 24.3194 20.1992 23.5871 20.1992C22.8786 20.1992 22.2026 20.1468 21.5596 20.0421C20.9161 19.9374 20.3681 19.8214 19.9567 19.6933V7.18056C19.9567 7.17943 19.9613 7.17601 19.9613 7.17601C20.2953 6.84769 21.7537 6.58594 22.0894 6.58594L22.1173 6.58651V11.1557C22.3227 11.0277 22.6601 10.9116 23.0192 10.8075C23.4055 10.6986 23.8054 10.6455 24.2067 10.6499C24.8565 10.6499 25.4375 10.7637 25.9513 10.9907C26.4502 11.2067 26.8904 11.5388 27.235 11.9592C27.5776 12.3786 27.8399 12.8822 28.0231 13.4694ZM25.4284 17.572C25.8779 17.0428 26.1027 16.3122 26.1027 15.3813C26.1027 14.4851 25.924 13.7749 25.5638 13.2514C25.2036 12.7279 24.6363 12.4662 23.8568 12.4662C23.5028 12.4662 23.1739 12.518 22.861 12.6232C22.548 12.7274 22.3227 12.844 22.1173 12.9721V18.227C22.2197 18.2617 22.4593 18.2941 22.7017 18.3226C22.9435 18.3522 23.2269 18.3664 23.5694 18.3664C24.3604 18.3664 24.98 18.1018 25.4284 17.572ZM31.497 10.8462H31.4782H31.5294C31.6524 10.8462 32.5423 10.8519 32.8086 11.0209C33.1489 11.2371 33.3583 11.5307 33.3594 11.9142C33.36 12.275 33.2439 15.1537 33.1961 15.4354C33.1483 15.7164 32.8541 15.5304 32.7272 16.2473C32.6003 16.9643 32.2976 20.0262 32.2219 20.1013C32.111 20.2106 31.6267 20.2976 31.5152 20.2976C31.4037 20.2976 30.9195 20.2106 30.8085 20.1013C30.7328 20.0262 30.4295 16.9649 30.3026 16.2473C30.1757 15.5304 29.8804 15.7164 29.8326 15.4354C29.7848 15.1537 29.6665 12.275 29.6676 11.9142C29.6676 11.5307 29.8725 11.2371 30.2133 11.0209C30.4989 10.8388 31.497 10.8462 31.497 10.8462ZM32.7728 9.22449C32.7728 9.8965 32.2202 10.4405 31.5408 10.4405C30.8597 10.4405 30.3089 9.8965 30.3089 9.22506C30.3089 8.55532 30.8597 8.01133 31.5408 8.01133C32.2202 8.01133 32.7728 8.55532 32.7728 9.22506V9.22449Z" fill="#1B1D1B"/>
<path d="M30.8061 4.25628C28.8373 5.87685 28.9864 7.53099 28.9852 7.69658C29.0006 8.25194 29.173 8.77715 29.4643 9.21529C28.7241 8.73049 28.3053 7.57082 28.2427 6.56935C28.2358 6.46465 27.9581 4.83668 29.927 3.05109C32.2133 0.977009 31.9214 0 31.9214 0C31.9214 0 32.5928 0.565038 32.5928 1.80209C32.5934 2.61465 31.5083 3.681 30.8061 4.25628ZM34.5377 7.84395C34.5753 8.78739 34.066 9.8526 33.1539 10.1758C33.353 9.8782 33.4703 9.52143 33.4703 9.13791C33.4703 8.09774 32.611 7.25103 31.5555 7.25103C31.1592 7.24986 30.7723 7.37159 30.448 7.59945C30.1237 7.82731 29.8781 8.1501 29.7449 8.52336C29.3494 7.66073 29.5702 6.43164 30.389 5.47739C31.4377 4.25684 32.8779 3.70376 33.1829 1.79924C34.1787 3.29349 33.2825 4.4964 33.8077 5.90302C34.1787 6.77818 34.4985 6.85727 34.5377 7.84395Z" fill="#E00000"/>
</svg>
