<svg width="122" height="22" viewBox="0 0 122 22" fill="none" xmlns="http://www.w3.org/2000/svg">
<path d="M10.4546 11.2849C10.4546 10.3844 9.63415 9.09536 8.06309 9.09536C6.63166 9.09536 5.67155 10.3314 5.67155 11.6028C5.67155 13.1214 6.7015 14.1985 8.48202 14.1985H11.8511C11.0481 15.4522 9.66907 16.2645 8.08055 16.2645C5.56682 16.2645 3.52441 14.1808 3.52441 11.6381C3.52441 9.09536 5.56682 7.01172 8.08055 7.01172C10.5943 7.01172 12.6542 9.09536 12.6542 11.6381C12.6542 12.1502 12.5669 12.6269 12.4272 13.0861H7.34735V12.5739L9.14538 12.521C10.0531 12.4857 10.4546 12.0089 10.4546 11.2849Z" fill="#000099"/>
<path d="M16.4444 9.88866L18.1901 7.29297H20.5816L17.6315 11.4779L20.826 15.9807H18.2774L16.3746 13.1731L14.4544 15.9807H12.0454L15.1876 11.5838L12.1327 7.29297H14.6813L16.4444 9.88866Z" fill="#000099"/>
<path d="M25.7656 14.3729C27.0574 14.3729 28.192 13.2251 28.192 11.6359C28.192 10.0467 27.0574 8.89891 25.7656 8.89891C24.4913 8.89891 23.3391 10.0467 23.3391 11.6359C23.3391 13.2251 24.4913 14.3729 25.7656 14.3729ZM23.4788 9.00489C24.1072 7.66288 25.2419 7.0625 26.3766 7.0625C28.4539 7.0625 30.3392 8.84593 30.3392 11.6536C30.3392 14.4612 28.4539 16.2446 26.3766 16.2446C25.2244 16.2446 24.1072 15.6443 23.4788 14.3022C23.4438 14.2316 23.3915 14.2493 23.3915 14.3199V19.582H21.1746V7.29203H23.3915V8.96954C23.3741 9.05787 23.4264 9.07552 23.4788 9.00489Z" fill="#000099"/>
<path d="M37.9678 11.2849C37.9678 10.3844 37.1473 9.09536 35.5763 9.09536C34.1448 9.09536 33.1847 10.3314 33.1847 11.6028C33.1847 13.1214 34.2147 14.1985 35.9952 14.1985H39.3643C38.5613 15.4522 37.1823 16.2645 35.5937 16.2645C33.08 16.2645 31.0376 14.1808 31.0376 11.6381C31.0376 9.09536 33.08 7.01172 35.5937 7.01172C38.1075 7.01172 40.1673 9.09536 40.1673 11.6381C40.1673 12.1502 40.08 12.6269 39.9404 13.0861H34.8605V12.5739L36.6586 12.521C37.5663 12.4857 37.9678 12.0089 37.9678 11.2849Z" fill="#000099"/>
<path d="M45.4551 8.9032C44.1634 8.9032 43.0287 10.051 43.0287 11.6402C43.0287 13.2294 44.1634 14.3772 45.4551 14.3772C46.7295 14.3772 47.8816 13.2294 47.8816 11.6402C47.8816 10.051 46.7295 8.9032 45.4551 8.9032ZM47.7419 14.2712C47.1135 15.6132 45.9788 16.2136 44.8442 16.2136C42.7669 16.2136 40.8816 14.4301 40.8816 11.6225C40.8816 8.81487 42.7669 7.03144 44.8442 7.03144C45.9963 7.03144 47.1135 7.63182 47.7419 8.97383C47.7769 9.04446 47.8292 9.02676 47.8292 8.95613V3.53516H50.0462V15.9663H47.8292V14.3065C47.8467 14.2183 47.7943 14.2006 47.7419 14.2712Z" fill="#000099"/>
<path d="M53.8704 15.9824H51.6535V7.29466H53.8704V15.9824ZM51.4614 4.76958C51.4614 4.06326 52.055 3.46289 52.7532 3.46289C53.4515 3.46289 54.045 4.06326 54.045 4.76958C54.045 5.4759 53.4515 6.07626 52.7532 6.07626C52.055 6.07626 51.4614 5.49356 51.4614 4.76958Z" fill="#000099"/>
<path d="M59.543 8.90106C58.2512 8.90106 57.1165 10.0488 57.1165 11.638C57.1165 13.2272 58.2512 14.375 59.543 14.375C60.8176 14.375 61.9694 13.2272 61.9694 11.638C61.9694 10.0488 60.8176 8.90106 59.543 8.90106ZM61.847 14.269C61.2189 15.6111 60.0841 16.2114 58.9494 16.2114C56.8722 16.2114 54.9868 14.428 54.9868 11.6204C54.9868 8.81272 56.8722 7.0293 58.9494 7.0293C60.1016 7.0293 61.2189 7.62967 61.847 8.97168C61.8821 9.04231 61.9343 9.02461 61.9343 8.95398V7.27653H64.1514V15.9642H61.9343V14.3044C61.9343 14.2161 61.8821 14.1984 61.847 14.269Z" fill="#000099"/>
<path d="M72.8439 8.89891C71.5695 8.89891 70.4528 10.029 70.4528 11.6006C70.4528 13.1722 71.5695 14.3022 72.8439 14.3022C74.1012 14.3022 75.2355 13.1722 75.2355 11.6006C75.2355 10.029 74.1012 8.89891 72.8439 8.89891ZM75.1834 14.214C75.1834 14.1433 75.1307 14.1257 75.0961 14.1963C74.4674 15.5383 73.3501 16.1387 72.2334 16.1387C70.1733 16.1387 68.3054 14.3729 68.3054 11.6006C68.3054 8.82828 70.1733 7.0625 72.2334 7.0625C73.3677 7.0625 74.4674 7.66288 75.0961 9.00489C75.1307 9.07552 75.1834 9.05787 75.1834 8.98718V7.30973H77.4005V15.4854C77.4005 17.9045 75.7594 19.7763 72.9142 19.7763C71.3252 19.7763 69.929 19.2112 68.9165 18.2576L70.243 16.792C71.1336 17.4984 71.8314 17.8692 72.8614 17.8692C74.485 17.8692 75.1658 16.7037 75.1658 15.2735V14.214H75.1834Z" fill="#000099"/>
<path d="M81.2249 7.29215V9.18156C81.2249 9.2169 81.2601 9.23454 81.2776 9.18156C81.5741 7.62766 82.238 7.04492 83.3898 7.04492H83.599V9.39344H82.6041C81.6966 9.39344 81.2425 10.0998 81.2425 11.1063V15.9445H79.0254V7.29215H81.2249Z" fill="#000099"/>
<path d="M88.2933 9.06002C86.9662 9.06002 85.8665 10.1901 85.8665 11.6381C85.8665 13.1037 86.9662 14.2162 88.2933 14.2162C89.6198 14.2162 90.7196 13.0861 90.7196 11.6381C90.702 10.1725 89.6198 9.06002 88.2933 9.06002ZM88.3109 7.01172C90.8069 7.01172 92.8669 9.09536 92.8669 11.6381C92.8669 14.1808 90.8069 16.2645 88.3109 16.2645C85.7798 16.2645 83.7197 14.1808 83.7197 11.6381C83.7197 9.09536 85.7622 7.01172 88.3109 7.01172Z" fill="#000099"/>
<path d="M97.4593 16.2632C95.2944 16.2632 93.9158 14.9388 93.9158 12.9965V7.29297H96.1323V12.8199C96.1323 13.6851 96.6912 14.2502 97.5115 14.2502C98.262 14.2502 98.838 13.6675 98.838 12.8552V7.29297H101.073V12.9788C101.073 14.9388 99.5715 16.2632 97.4593 16.2632Z" fill="#000099"/>
<path d="M107.198 14.3729C108.489 14.3729 109.624 13.2251 109.624 11.6359C109.624 10.0467 108.489 8.89891 107.198 8.89891C105.924 8.89891 104.771 10.0467 104.771 11.6359C104.771 13.2251 105.924 14.3729 107.198 14.3729ZM104.911 9.00489C105.539 7.66288 106.674 7.0625 107.808 7.0625C109.886 7.0625 111.771 8.84593 111.771 11.6536C111.771 14.4612 109.886 16.2446 107.808 16.2446C106.656 16.2446 105.539 15.6443 104.911 14.3022C104.876 14.2316 104.824 14.2493 104.824 14.3199V19.582H102.607V7.29203H104.824V8.96954C104.824 9.05787 104.876 9.07552 104.911 9.00489Z" fill="#000099"/>
<path d="M113.239 7.33008V7.54196H113.624V8.63674H113.868V7.54196H114.252V7.33008H113.239ZM115.596 7.33008L115.247 8.24832L114.898 7.33008H114.531V8.63674H114.758V7.61259L115.142 8.63674H115.317L115.701 7.61259V8.63674H115.928V7.33008H115.596Z" fill="#000099"/>
</svg>
