<svg width="33" height="33" viewBox="0 0 33 33" fill="none" xmlns="http://www.w3.org/2000/svg">
<path d="M22.3478 10.9019V11.992H25.0732V13.082H26.1634V11.992H27.2535V13.6271H28.3437V11.992H29.4339V13.6271H30.524V4.90637C30.524 4.76182 30.4666 4.62318 30.3644 4.52097C30.2621 4.41875 30.1235 4.36133 29.9789 4.36133H23.983V5.45142H25.0732V10.9019H22.3478ZM29.4339 10.9019H28.3437V5.45142H29.4339V10.9019ZM27.2535 5.45142V10.9019H26.1634V5.45142H27.2535Z" fill="black"/>
<path d="M2.72541 29.4334H4.36066V32.1586C4.36066 32.3031 4.41809 32.4418 4.52032 32.544C4.62254 32.6462 4.76118 32.7036 4.90575 32.7036H29.9796C30.1241 32.7036 30.2628 32.6462 30.365 32.544C30.4672 32.4418 30.5246 32.3031 30.5246 32.1586V25.073H29.4345V31.6135H28.3443V25.073H27.2541V31.6135H5.45083V29.4334H23.4386C24.1611 29.4325 24.8538 29.1451 25.3648 28.6342C25.8757 28.1233 26.1631 27.4307 26.164 26.7081V25.073H25.0738V26.7081C25.0738 27.1418 24.9015 27.5577 24.5949 27.8644C24.2882 28.171 23.8723 28.3433 23.4386 28.3433C23.0049 28.3433 22.5889 28.171 22.2823 27.8644C21.9756 27.5577 21.8033 27.1418 21.8033 26.7081V25.6181C21.8033 25.4735 21.7459 25.3349 21.6437 25.2327C21.5414 25.1304 21.4028 25.073 21.2582 25.073H5.45083V11.992H10.3566V10.9019H5.45083V5.45142H8.72133V4.36133H4.90575C4.76118 4.36133 4.62254 4.41875 4.52032 4.52097C4.41809 4.62318 4.36066 4.76182 4.36066 4.90637V25.073H0.545083C0.400518 25.073 0.261874 25.1304 0.159651 25.2327C0.0574282 25.3349 0 25.4735 0 25.6181V26.7081C0.000865514 27.4307 0.288285 28.1233 0.799212 28.6342C1.31014 29.1451 2.00286 29.4325 2.72541 29.4334ZM1.09017 26.1631H20.7132V26.7081C20.7124 27.2979 20.9037 27.8719 21.2582 28.3433H2.72541C2.29172 28.3433 1.87579 28.171 1.56912 27.8644C1.26245 27.5577 1.09017 27.1418 1.09017 26.7081V26.1631Z" fill="black"/>
<path d="M27.253 15.26V15.2802C26.3103 14.5686 25.1636 14.1793 23.9825 14.1699C22.7644 14.211 21.5765 14.5602 20.53 15.1848L20.3915 15.26H16.3513C16.0154 15.26 15.684 15.3375 15.383 15.4866C15.082 15.6358 14.8195 15.8524 14.6161 16.1197C14.4126 16.387 14.2736 16.6977 14.2101 17.0275C14.1465 17.3574 14.16 17.6974 14.2495 18.0212L9.47186 15.8666C9.21703 15.7503 8.94124 15.6868 8.66118 15.6801C8.38112 15.6734 8.10261 15.7235 7.84249 15.8275C7.58236 15.9315 7.34604 16.0872 7.14781 16.2851C6.94958 16.483 6.79357 16.7191 6.68921 16.9791C6.50319 17.4401 6.48856 17.9525 6.64797 18.4234C6.80737 18.8943 7.13026 19.2924 7.55807 19.5457L14.2037 23.4357C14.7964 23.7918 15.4746 23.9802 16.166 23.9807H32.7038V22.8906H28.3432V15.8051H32.7038V14.715H27.7981C27.6535 14.715 27.5149 14.7724 27.4127 14.8746C27.3104 14.9768 27.253 15.1155 27.253 15.26ZM14.7597 22.4987L8.11405 18.6082C7.91039 18.4871 7.75683 18.297 7.68114 18.0725C7.60546 17.848 7.61265 17.6037 7.70143 17.384C7.75016 17.2607 7.82368 17.1488 7.91744 17.055C8.0112 16.9613 8.1232 16.8877 8.24651 16.839C8.37017 16.7894 8.50267 16.7655 8.63588 16.769C8.76908 16.7725 8.90017 16.8032 9.02107 16.8592L15.0372 19.5719C15.1075 19.6039 15.1839 19.6205 15.2612 19.6204H20.712C20.8566 19.6204 20.9952 19.5629 21.0974 19.4607C21.1997 19.3585 21.2571 19.2199 21.2571 19.0753C21.2571 18.9308 21.1997 18.7921 21.0974 18.6899C20.9952 18.5877 20.8566 18.5303 20.712 18.5303H16.3513C16.0622 18.5303 15.7849 18.4154 15.5805 18.211C15.376 18.0066 15.2612 17.7293 15.2612 17.4402C15.2612 17.1511 15.376 16.8738 15.5805 16.6694C15.7849 16.4649 16.0622 16.3501 16.3513 16.3501H20.5305C20.6215 16.35 20.7111 16.3272 20.791 16.2836L21.0516 16.1419C21.939 15.6064 22.947 15.3031 23.9825 15.26C25.3452 15.26 26.1803 15.8225 27.253 16.6226V22.8906H16.1671C15.6711 22.8905 15.1844 22.755 14.7597 22.4987Z" fill="black"/>
<path d="M16.3529 0C15.0592 0 13.7946 0.383596 12.7189 1.10228C11.6432 1.82096 10.8049 2.84245 10.3098 4.03758C9.81472 5.23271 9.68519 6.54779 9.93758 7.81653C10.19 9.08527 10.8129 10.2507 11.7277 11.1654C12.6425 12.0801 13.808 12.703 15.0768 12.9554C16.3456 13.2078 17.6608 13.0782 18.856 12.5832C20.0512 12.0882 21.0728 11.2498 21.7915 10.1743C22.5103 9.09867 22.8939 7.83413 22.8939 6.54053C22.892 4.80645 22.2023 3.14393 20.976 1.91775C19.7497 0.691568 18.0871 0.00187554 16.3529 0ZM16.3529 11.991C15.2748 11.991 14.221 11.6713 13.3246 11.0724C12.4282 10.4735 11.7295 9.62227 11.317 8.62633C10.9044 7.63039 10.7965 6.53449 11.0068 5.4772C11.2171 4.41992 11.7363 3.44875 12.4986 2.68649C13.2609 1.92423 14.2321 1.40512 15.2895 1.19482C16.3468 0.984511 17.4428 1.09245 18.4388 1.50498C19.4348 1.91751 20.2861 2.61611 20.8851 3.51243C21.484 4.40875 21.8037 5.46254 21.8037 6.54053C21.8021 7.98559 21.2273 9.37101 20.2055 10.3928C19.1836 11.4146 17.7981 11.9894 16.3529 11.991Z" fill="black"/>
<path d="M16.8969 5.99292H15.8068C15.6622 5.99292 15.5235 5.9355 15.4213 5.83328C15.3191 5.73107 15.2617 5.59243 15.2617 5.44788C15.2617 5.30332 15.3191 5.16469 15.4213 5.06247C15.5235 4.96026 15.6622 4.90283 15.8068 4.90283H17.9871V3.81275H16.8969V2.72266H15.8068V3.81275C15.3731 3.81275 14.9571 3.98502 14.6505 4.29166C14.3438 4.59831 14.1715 5.01421 14.1715 5.44788C14.1715 5.88154 14.3438 6.29745 14.6505 6.60409C14.9571 6.91074 15.3731 7.08301 15.8068 7.08301H16.8969C17.0415 7.08301 17.1801 7.14044 17.2824 7.24265C17.3846 7.34487 17.442 7.4835 17.442 7.62806C17.442 7.77261 17.3846 7.91125 17.2824 8.01346C17.1801 8.11568 17.0415 8.1731 16.8969 8.1731H14.7166V9.26319H15.8068V10.3533H16.8969V9.26319C17.3306 9.26319 17.7465 9.09092 18.0532 8.78427C18.3599 8.47762 18.5322 8.06172 18.5322 7.62806C18.5322 7.19439 18.3599 6.77849 18.0532 6.47184C17.7465 6.16519 17.3306 5.99292 16.8969 5.99292Z" fill="black"/>
<path d="M30.5236 20.7129H29.4335V21.803H30.5236V20.7129Z" fill="black"/>
</svg>
