<svg width="41" height="33" viewBox="0 0 41 33" fill="none" xmlns="http://www.w3.org/2000/svg">
<path d="M32.0207 7.90107C31.4047 7.28515 30.5194 7.10949 29.7158 7.44154C28.9098 7.77596 28.4093 8.5242 28.4093 9.39517V12.6648C26.5472 12.7129 24.8052 13.0089 23.2029 13.5454V9.22197H25.1253C25.8423 9.22197 26.4678 8.81537 26.7589 8.16093C27.0499 7.50649 26.9297 6.77031 26.4509 6.23859L21.3431 0.589451C21.0039 0.214123 20.5203 0 20.0199 0C19.517 0 19.0358 0.21413 18.6942 0.589451L13.5888 6.23859C13.1076 6.7703 12.9897 7.50652 13.2785 8.16093C13.5696 8.81534 14.1951 9.22437 14.9145 9.22437H16.8344V13.5526C15.2296 13.0185 13.4781 12.7177 11.628 12.6672V9.39757C11.628 8.5266 11.1275 7.77598 10.3216 7.44394C9.51556 7.10952 8.63258 7.28755 8.01666 7.90347L0.620723 15.3019C0.221337 15.7013 0 16.2306 0 16.7984C0 17.3638 0.221349 17.8954 0.61832 18.2925L8.01673 25.6933C8.42814 26.1023 8.95502 26.3165 9.49875 26.3165C9.77302 26.3165 10.0521 26.2611 10.3216 26.1504C11.1251 25.816 11.6256 25.0678 11.6256 24.1992V21.0547C12.7515 21.1749 13.7789 21.3674 14.6956 21.6273C13.5624 24.8127 13.7308 28.3833 15.2465 31.607C15.6507 32.4659 16.3918 33 17.128 33C17.2386 33 17.3493 32.988 17.46 32.9639C17.78 32.8917 18.8241 32.5116 18.8097 30.6783C18.7904 28.5418 19.1874 26.7783 20.015 25.3636C20.8354 26.7686 21.2421 28.5515 21.2228 30.6783C21.2084 32.5092 22.2526 32.8918 22.5725 32.9639C22.6832 32.988 22.7939 33 22.9045 33C23.6407 33 24.3818 32.4659 24.786 31.607C26.2801 28.4263 26.4726 24.822 25.3345 21.6223C26.256 21.3625 27.281 21.1724 28.4069 21.0545V24.1991C28.4069 25.0701 28.9073 25.8183 29.7109 26.1503C30.5169 26.4848 31.3999 26.3091 32.0182 25.6932L39.4166 18.2948C39.816 17.8954 40.0349 17.3661 40.0349 16.8007C40.0349 16.2353 39.816 15.7036 39.4166 15.3066L32.0182 7.90821L32.0207 7.90107ZM17.4025 8.08632H14.9147C14.5201 8.08632 14.3565 7.79039 14.318 7.69897C14.2771 7.60754 14.1665 7.28996 14.4311 6.99885L19.5365 1.34972C19.664 1.21017 19.8349 1.13318 20.0201 1.13318C20.2054 1.13318 20.3762 1.21017 20.5037 1.34972L25.6115 6.99885C25.8762 7.28997 25.7655 7.60755 25.7246 7.69897C25.6837 7.79039 25.5225 8.08632 25.1303 8.08632H22.6402C22.3274 8.08632 22.0724 8.34135 22.0724 8.65413V13.976C21.7235 14.1252 21.3819 14.284 21.0498 14.4548C20.6986 14.6377 20.3569 14.8349 20.0249 15.0443C19.3801 14.6377 18.6944 14.2816 17.9726 13.9784V8.65411C17.9726 8.34134 17.7176 8.08631 17.4048 8.08631L17.4025 8.08632ZM11.1084 19.8608C10.9496 19.8488 10.7932 19.9017 10.6777 20.01C10.5598 20.1183 10.4949 20.2698 10.4949 20.4262V24.1939C10.4949 24.6029 10.2687 24.9421 9.89099 25.0986C9.51085 25.255 9.11148 25.1756 8.82034 24.8869L1.42193 17.486C1.23668 17.3031 1.13563 17.0577 1.13563 16.7955C1.13563 16.5332 1.23668 16.2878 1.42193 16.1026L8.81787 8.70416C9.10899 8.41304 9.50838 8.33365 9.88612 8.49003C10.2639 8.64642 10.49 8.98566 10.49 9.39469V13.225C10.49 13.5377 10.745 13.7928 11.0578 13.7928C14.0436 13.7928 16.7695 14.4689 19.0001 15.7536C17.7802 16.6871 16.7409 17.8131 15.9349 19.0834C15.6317 19.5622 15.3623 20.0554 15.1289 20.563C13.9476 20.219 12.5979 19.9832 11.1062 19.8605L11.1084 19.8608ZM23.7612 31.1204C23.5014 31.6762 23.0851 31.912 22.8277 31.8542C22.539 31.7893 22.3561 31.3297 22.361 30.685C22.3826 28.1323 21.8341 26.0054 20.7298 24.3552C21.6007 23.3278 22.7724 22.5387 24.2593 21.9733C25.3058 24.8989 25.1326 28.2016 23.7612 31.1204ZM38.6177 17.4883L31.2193 24.8867C30.9282 25.1778 30.5288 25.2572 30.1487 25.0984C29.771 24.942 29.5448 24.6028 29.5448 24.1938V20.4261C29.5448 20.2673 29.4774 20.1157 29.3619 20.0099C29.2465 19.9016 29.0901 19.8487 28.9313 19.8607C25.1853 20.1662 22.4543 21.1527 20.5782 22.8777C20.2101 23.2145 19.8781 23.5826 19.5797 23.9772C19.5677 23.9917 19.5557 24.0085 19.5437 24.0254C18.2805 25.7287 17.6526 27.9614 17.6742 30.6847C17.679 31.3295 17.4962 31.789 17.2075 31.8539C16.95 31.9117 16.5338 31.6759 16.274 31.1201C14.5056 27.3596 14.7366 23.0867 16.8923 19.6918C19.2742 15.9433 23.6748 13.7924 28.9698 13.7924H28.9747C29.1262 13.7924 29.2706 13.7323 29.3764 13.6264C29.4823 13.5206 29.5425 13.3762 29.5425 13.2246V9.39437C29.5425 8.98536 29.7686 8.64615 30.1463 8.48971C30.5241 8.33332 30.9234 8.41272 31.2146 8.70384L38.613 16.1022C38.7958 16.2851 38.8993 16.5329 38.8993 16.7952C38.8993 17.0574 38.7982 17.3028 38.613 17.4881L38.6177 17.4883Z" fill="black"/>
</svg>
