<svg width="17" height="17" viewBox="0 0 17 17" fill="none" xmlns="http://www.w3.org/2000/svg">
<path d="M4.55377 10.8192H0.436394C-0.145465 9.11297 -0.145465 7.26202 0.436394 5.5558H4.55377C4.33029 7.30315 4.33029 9.07185 4.55377 10.8192ZM11.135 4.97098C10.6328 2.07822 9.48542 0 8.1875 0C6.88958 0 5.74216 2.07822 5.24 4.97098H11.135ZM5.24 11.404C5.74216 14.2968 6.88958 16.375 8.1875 16.375C9.48542 16.375 10.6328 14.2968 11.135 11.404H5.24ZM4.97098 8.1875C4.97027 9.06778 5.02987 9.94707 5.14935 10.8192H11.2256C11.3451 9.94707 11.4047 9.06778 11.404 8.1875C11.4047 7.30722 11.3451 6.42793 11.2256 5.5558H5.14935C5.02987 6.42793 4.97027 7.30722 4.97098 8.1875ZM15.9386 5.5558H11.8212C11.9343 6.42845 11.9903 7.30755 11.9888 8.1875C11.9903 9.06745 11.9343 9.94655 11.8212 10.8192H15.9386C16.5205 9.11297 16.5205 7.26202 15.9386 5.5558ZM9.73365 16.2266C11.0484 15.9713 12.2807 15.3984 13.3234 14.5579C14.366 13.7173 15.1873 12.6346 15.7158 11.404H11.7332C11.3724 13.5759 10.6535 15.3049 9.73365 16.2266ZM0.659181 11.404C1.18767 12.6346 2.00901 13.7173 3.05167 14.5579C4.09433 15.3984 5.32669 15.9713 6.64141 16.2266C5.7216 15.3049 5.00262 13.5759 4.64187 11.404H0.659181ZM6.64141 0.148369C5.32669 0.403684 4.09433 0.976565 3.05167 1.81711C2.00901 2.65766 1.18767 3.74039 0.659181 4.97098H4.64182C5.00262 2.79907 5.7216 1.07022 6.64141 0.148369ZM15.7158 4.97098C15.1873 3.74038 14.366 2.65766 13.3233 1.81711C12.2807 0.976558 11.0483 0.403679 9.73359 0.148369C10.6534 1.07022 11.3724 2.79907 11.7331 4.97098H15.7158Z" fill="#7A542A"/>
</svg>
