<svg width="33" height="33" viewBox="0 0 33 33" fill="none" xmlns="http://www.w3.org/2000/svg">
<path d="M31.7641 5.84432C31.9752 6.05573 32.3226 6.05573 32.5337 5.84432C32.6359 5.74203 32.6904 5.60564 32.6904 5.45561V0.545561C32.6904 0.245503 32.4452 0 32.1455 0H27.2416C26.942 0 26.6968 0.245503 26.6968 0.545561C26.6968 0.688771 26.7513 0.831981 26.8534 0.934274L27.984 2.06631L21.3093 5.88524L14.5188 0.129571C14.3213 -0.0340976 14.042 -0.0409171 13.8377 0.109112L0.215797 10.4748C-0.022586 10.6589 -0.0702626 10.9999 0.106822 11.2386L1.74145 13.4208C1.92535 13.6595 2.26589 13.714 2.50428 13.5299C2.50428 13.5299 2.51109 13.5299 2.51109 13.5231L14.151 4.52134L19.7632 9.27454H11.9919C11.6922 9.27454 11.4471 9.52004 11.4471 9.8201V13.6595L6.55679 13.1003C6.25711 13.0662 5.98467 13.2844 5.95062 13.5777L5.45342 17.9149C5.41936 18.2149 5.6305 18.4877 5.93018 18.5218L20.7644 20.2199L17.9856 21.5565V21.2769C17.9856 20.9768 17.7404 20.7313 17.4407 20.7313H10.7523C10.3709 20.7313 10.0031 20.8677 9.70345 21.1132L6.89053 23.4591H0.00465781V24.5503H7.08804C7.21745 24.5503 7.34005 24.5025 7.4354 24.4207L10.405 21.9452C10.5003 21.8634 10.6229 21.8156 10.7523 21.8156H16.8958C16.8958 22.7158 16.1602 23.4523 15.2612 23.4523H11.4471V24.5434H12.3733L16.6234 27.3804C17.1001 27.7009 17.7131 27.7418 18.2308 27.4963L18.367 27.4349H18.3738L27.3302 23.1659C28.093 22.7976 29.0057 23.0772 29.4348 23.8001L29.7549 24.3388L16.2624 31.6153L7.1834 30.0127C7.14934 30.0059 7.1221 30.0059 7.08804 30.0059H0.00465781V31.097H7.04037L16.2556 32.7269C16.3782 32.7473 16.5008 32.7269 16.6097 32.6723L30.7765 25.0344C31.0421 24.8912 31.1375 24.5639 31.0013 24.2979C30.9945 24.2911 30.9945 24.2843 30.9877 24.2775L30.3747 23.2477C30.1022 22.7976 29.7072 22.4294 29.2372 22.1975L32.3975 20.67C32.67 20.5404 32.7789 20.213 32.6495 19.9403L30.7561 16.0054C30.6267 15.7326 30.2998 15.6167 30.0273 15.7531L22.8622 19.2106L23.2777 15.5621C23.3117 15.2621 23.1006 14.9893 22.8009 14.9552L20.8325 14.7302H28.3382C28.6379 14.7302 28.8831 14.4846 28.8831 14.1846V9.8201C28.8831 9.52004 28.6379 9.27454 28.3382 9.27454H23.1006L30.4428 4.51452L31.7641 5.84432ZM21.1731 21.236L22.5966 24.1888L20.635 25.1367L19.2115 22.1839L21.1731 21.236ZM26.5197 22.293L25.0962 19.3401L27.0577 18.3922L28.4744 21.3451L26.5197 22.293ZM25.5389 22.7635L23.5705 23.7115L22.1471 20.7586L24.1086 19.8107L25.5389 22.7635ZM17.7744 22.8727L18.2239 22.6544L19.6474 25.6141L17.897 26.4597L17.7608 26.5211C17.7336 26.5347 17.7063 26.5416 17.6791 26.5552L16.5553 24.2229C17.1069 23.9229 17.536 23.4455 17.7744 22.8727ZM15.2612 24.5503C15.3429 24.5503 15.4246 24.5434 15.5064 24.5366L16.0649 25.7028L14.3349 24.5503H15.2612ZM31.4236 19.9198L29.462 20.8677L28.0453 17.9149L30.0069 16.967L31.4236 19.9198ZM24.5241 10.3657V13.639H22.3446V10.3657H24.5241ZM21.2548 13.639H19.0753V10.3657H21.2548V13.639ZM15.8061 13.639V10.3657H17.9856V13.639H15.8061ZM12.5368 10.3657H14.7163V13.639H12.5368V10.3657ZM18.8846 15.6031L18.51 18.856L16.3441 18.6105L16.7187 15.3575L18.8846 15.6031ZM15.2612 18.4877L13.0953 18.2422L13.4699 14.9893L15.6358 15.2348L15.2612 18.4877ZM12.387 14.8597L12.0124 18.1126L9.84648 17.8671L10.2211 14.6142L12.387 14.8597ZM6.97226 14.246L9.13814 14.4915L8.76354 17.7444L6.59766 17.4989L6.97226 14.246ZM21.7588 19.231L19.5929 18.9855L19.9675 15.7326L22.1334 15.9781L21.7588 19.231ZM27.7933 13.639H25.6138V10.3657H27.7933V13.639ZM21.2957 9.14497L14.5188 3.40294C14.3213 3.23927 14.0352 3.23245 13.8309 3.3893L2.27951 12.3229L1.29874 11.0203L14.151 1.24797L20.9006 6.96954C21.0777 7.11957 21.3229 7.14003 21.5204 7.0241L29.1487 2.65961C29.4075 2.50958 29.5029 2.17543 29.353 1.91628C29.3258 1.87537 29.2985 1.83445 29.2645 1.80035L28.563 1.09112H31.6075V4.13945L30.9059 3.43704C30.722 3.25291 30.4428 3.22563 30.2248 3.36202L21.2957 9.14497Z" fill="black"/>
<path d="M8.94102 0.106541L2.94739 4.60742L3.60124 5.48032L9.59487 0.979439L8.94102 0.106541Z" fill="black"/>
<path d="M1.67613 5.56376L0.221313 6.65625L0.875165 7.52915L2.32998 6.43666L1.67613 5.56376Z" fill="black"/>
</svg>
