<svg width="33" height="31" viewBox="0 0 33 31" fill="none" xmlns="http://www.w3.org/2000/svg">
<path d="M23.9921 8.94754C22.9921 8.94754 22.1786 8.13394 22.1786 7.13393C22.1786 6.13391 22.9921 5.32031 23.9921 5.32031C24.9922 5.32031 25.8057 6.13398 25.8057 7.13399C25.8057 8.13401 24.9922 8.94754 23.9921 8.94754ZM23.9921 6.28632C23.5248 6.28632 23.1445 6.66655 23.1445 7.13399C23.1445 7.60144 23.5248 7.98167 23.9921 7.98167C24.4595 7.98167 24.8398 7.60137 24.8398 7.13399C24.8398 6.66662 24.4595 6.28632 23.9921 6.28632Z" fill="black"/>
<path d="M23.9915 6.28845C23.7248 6.28845 23.5085 6.07222 23.5085 5.80548V2.14624C23.5085 0.962831 24.4714 0 25.6548 0H26.2092C26.476 0 26.6922 0.216232 26.6922 0.482968C26.6922 0.749704 26.476 0.965936 26.2092 0.965936H25.6548C25.004 0.965936 24.4745 1.49541 24.4745 2.14624V5.80548C24.4745 6.07222 24.2582 6.28845 23.9915 6.28845Z" fill="black"/>
<path d="M17.7795 8.94754C16.7795 8.94754 15.9659 8.13394 15.9659 7.13393C15.9659 6.13391 16.7795 5.32031 17.7795 5.32031C18.7795 5.32031 19.5931 6.13398 19.5931 7.13399C19.5931 8.13401 18.7795 8.94754 17.7795 8.94754ZM17.7795 6.28632C17.3121 6.28632 16.9319 6.66655 16.9319 7.13399C16.9319 7.60144 17.3121 7.98167 17.7795 7.98167C18.2469 7.98167 18.6272 7.60137 18.6272 7.13399C18.6272 6.66662 18.2469 6.28632 17.7795 6.28632Z" fill="black"/>
<path d="M17.7812 6.28845C17.5144 6.28845 17.2982 6.07222 17.2982 5.80548V2.14624C17.2982 0.962831 18.2611 0 19.4445 0H19.9989C20.2656 0 20.4819 0.216232 20.4819 0.482968C20.4819 0.749704 20.2656 0.965936 19.9989 0.965936H19.4445C18.7936 0.965936 18.2642 1.49541 18.2642 2.14624V5.80548C18.2642 6.07222 18.0479 6.28845 17.7812 6.28845Z" fill="black"/>
<path d="M11.5706 8.94754C10.5706 8.94754 9.75696 8.13394 9.75696 7.13393C9.75696 6.13391 10.5706 5.32031 11.5706 5.32031C12.5706 5.32031 13.3842 6.13398 13.3842 7.13399C13.3842 8.13401 12.5706 8.94754 11.5706 8.94754ZM11.5706 6.28632C11.1032 6.28632 10.7229 6.66655 10.7229 7.13399C10.7229 7.60144 11.1031 7.98167 11.5706 7.98167C12.038 7.98167 12.4182 7.60137 12.4182 7.13399C12.4182 6.66662 12.038 6.28632 11.5706 6.28632Z" fill="black"/>
<path d="M11.5722 6.28845C11.3055 6.28845 11.0892 6.07222 11.0892 5.80548V2.14624C11.0892 0.962831 12.0521 0 13.2355 0H13.7899C14.0567 0 14.2729 0.216232 14.2729 0.482968C14.2729 0.749704 14.0567 0.965936 13.7899 0.965936H13.2355C12.5846 0.965936 12.0552 1.49541 12.0552 2.14624V5.80548C12.0552 6.07222 11.839 6.28845 11.5722 6.28845Z" fill="black"/>
<path d="M5.36134 8.94754C4.36132 8.94754 3.54773 8.13394 3.54773 7.13393C3.54773 6.13391 4.36132 5.32031 5.36134 5.32031C6.36136 5.32031 7.17496 6.13398 7.17496 7.13399C7.17496 8.13401 6.36136 8.94754 5.36134 8.94754ZM5.36134 6.28632C4.89397 6.28632 4.51367 6.66655 4.51367 7.13399C4.51367 7.60144 4.8939 7.98167 5.36134 7.98167C5.82879 7.98167 6.20902 7.60137 6.20902 7.13399C6.20902 6.66662 5.82879 6.28632 5.36134 6.28632Z" fill="black"/>
<path d="M5.36236 6.28845C5.09563 6.28845 4.87939 6.07222 4.87939 5.80548V2.14624C4.87939 0.962831 5.84223 0 7.02563 0H7.58008C7.84682 0 8.06305 0.216232 8.06305 0.482968C8.06305 0.749704 7.84682 0.965936 7.58008 0.965936H7.02563C6.3748 0.965936 5.84533 1.49541 5.84533 2.14624V5.80548C5.84533 6.07222 5.62917 6.28845 5.36236 6.28845Z" fill="black"/>
<path d="M20.4477 25.8032H2.30657C1.03478 25.8032 0.00012207 24.7686 0.00012207 23.4968V4.9666C0.00012207 3.69481 1.03478 2.66016 2.30657 2.66016H27.0463C28.3181 2.66016 29.3528 3.69481 29.3528 4.9666V17.0468C29.3528 17.2155 29.2647 17.372 29.1205 17.4595C28.9763 17.5472 28.7968 17.5531 28.6472 17.4753C27.8276 17.0497 26.9409 16.8338 26.0114 16.8338C22.8537 16.8338 20.2848 19.4027 20.2848 22.5604C20.2848 23.4541 20.4851 24.3102 20.8803 25.1053C20.9546 25.255 20.9464 25.4326 20.8583 25.5747C20.7703 25.7168 20.6149 25.8032 20.4477 25.8032ZM2.30657 3.62609C1.56742 3.62609 0.966058 4.22746 0.966058 4.9666V23.4968C0.966058 24.2359 1.56742 24.8373 2.30657 24.8373H19.716C19.4521 24.1109 19.3188 23.3479 19.3188 22.5604C19.3188 18.8701 22.3211 15.8679 26.0114 15.8679C26.823 15.8679 27.6315 16.0169 28.3868 16.3029V4.9666C28.3868 4.22746 27.7855 3.62609 27.0463 3.62609H2.30657Z" fill="black"/>
<path d="M6.00365 14.7629H3.24383C2.9771 14.7629 2.76086 14.5466 2.76086 14.2799V11.5201C2.76086 11.2533 2.9771 11.0371 3.24383 11.0371H6.00365C6.27038 11.0371 6.48662 11.2533 6.48662 11.5201V14.2799C6.48662 14.5466 6.27038 14.7629 6.00365 14.7629ZM3.7268 13.7969H5.52068V12.003H3.7268V13.7969Z" fill="black"/>
<path d="M11.5217 14.7629H8.7619C8.49516 14.7629 8.27893 14.5466 8.27893 14.2799V11.5201C8.27893 11.2533 8.49516 11.0371 8.7619 11.0371H11.5217C11.7885 11.0371 12.0047 11.2533 12.0047 11.5201V14.2799C12.0047 14.5466 11.7885 14.7629 11.5217 14.7629ZM9.24487 13.7969H11.0387V12.003H9.24487V13.7969Z" fill="black"/>
<path d="M17.0425 14.7629H14.2827C14.0159 14.7629 13.7997 14.5466 13.7997 14.2799V11.5201C13.7997 11.2533 14.0159 11.0371 14.2827 11.0371H17.0425C17.3092 11.0371 17.5254 11.2533 17.5254 11.5201V14.2799C17.5254 14.5466 17.3092 14.7629 17.0425 14.7629ZM14.7656 13.7969H16.5595V12.003H14.7656V13.7969Z" fill="black"/>
<path d="M6.00365 20.2843H3.24383C2.9771 20.2843 2.76086 20.0681 2.76086 19.8014V17.0416C2.76086 16.7748 2.9771 16.5586 3.24383 16.5586H6.00365C6.27038 16.5586 6.48662 16.7748 6.48662 17.0416V19.8014C6.48662 20.0681 6.27038 20.2843 6.00365 20.2843ZM3.7268 19.3184H5.52068V17.5245H3.7268V19.3184Z" fill="black"/>
<path d="M11.5217 20.2843H8.7619C8.49516 20.2843 8.27893 20.0681 8.27893 19.8014V17.0416C8.27893 16.7748 8.49516 16.5586 8.7619 16.5586H11.5217C11.7885 16.5586 12.0047 16.7748 12.0047 17.0416V19.8014C12.0047 20.0681 11.7885 20.2843 11.5217 20.2843ZM9.24487 19.3184H11.0387V17.5245H9.24487V19.3184Z" fill="black"/>
<path d="M17.0425 20.2843H14.2827C14.0159 20.2843 13.7997 20.0681 13.7997 19.8014V17.0416C13.7997 16.7748 14.0159 16.5586 14.2827 16.5586H17.0425C17.3092 16.5586 17.5254 16.7748 17.5254 17.0416V19.8014C17.5254 20.0681 17.3092 20.2843 17.0425 20.2843ZM14.7656 19.3184H16.5595V17.5245H14.7656V19.3184Z" fill="black"/>
<path d="M22.563 14.7629H19.8032C19.5364 14.7629 19.3202 14.5466 19.3202 14.2799V11.5201C19.3202 11.2533 19.5364 11.0371 19.8032 11.0371H22.563C22.8297 11.0371 23.0459 11.2533 23.0459 11.5201V14.2799C23.0459 14.5466 22.8297 14.7629 22.563 14.7629ZM20.2861 13.7969H22.08V12.003H20.2861V13.7969Z" fill="black"/>
<path d="M26.0127 29.2542C22.3225 29.2542 19.3202 26.252 19.3202 22.5617C19.3202 18.8714 22.3225 15.8691 26.0127 15.8691C29.703 15.8691 32.7053 18.8714 32.7053 22.5617C32.7053 26.252 29.703 29.2542 26.0127 29.2542ZM26.0127 16.8351C22.855 16.8351 20.2861 19.404 20.2861 22.5617C20.2861 25.7194 22.855 28.2883 26.0127 28.2883C29.1705 28.2883 31.7394 25.7194 31.7394 22.5617C31.7394 19.404 29.1705 16.8351 26.0127 16.8351Z" fill="black"/>
<path d="M21.1809 26.4935C21.0574 26.4935 20.9337 26.4463 20.8394 26.352C20.6509 26.1634 20.6509 25.8576 20.8394 25.669L23.5992 22.9091C23.6898 22.8186 23.8127 22.7677 23.9408 22.7677H26.4591L28.3841 20.2011C28.544 19.9878 28.8465 19.9442 29.0602 20.1046C29.2736 20.2646 29.3169 20.5673 29.1567 20.7807L27.0869 23.5405C26.9957 23.6622 26.8526 23.7337 26.7005 23.7337H24.1407L21.5224 26.3521C21.4282 26.4463 21.3045 26.4935 21.1809 26.4935Z" fill="black"/>
<path d="M29.4616 23.0437C29.2594 23.0437 29.0709 22.9158 29.0035 22.7134L28.4236 20.9737H26.7018C26.4351 20.9737 26.2189 20.7575 26.2189 20.4908C26.2189 20.224 26.4351 20.0078 26.7018 20.0078H28.7717C28.9796 20.0078 29.1641 20.1408 29.2299 20.338L29.9199 22.4079C30.0042 22.661 29.8674 22.9345 29.6144 23.0188C29.5637 23.0357 29.5122 23.0437 29.4616 23.0437Z" fill="black"/>
<path d="M17.0429 28.5655H3.24383C2.9771 28.5655 2.76086 28.3493 2.76086 28.0826C2.76086 27.8158 2.9771 27.5996 3.24383 27.5996H17.0429C17.3096 27.5996 17.5259 27.8158 17.5259 28.0826C17.5259 28.3493 17.3096 28.5655 17.0429 28.5655Z" fill="black"/>
<path d="M19.8001 30.632H13.5905C13.3238 30.632 13.1075 30.4157 13.1075 30.149C13.1075 29.8822 13.3238 29.666 13.5905 29.666H19.8001C20.0668 29.666 20.2831 29.8822 20.2831 30.149C20.2831 30.4157 20.0668 30.632 19.8001 30.632Z" fill="black"/>
</svg>
