<svg width="110" height="19" viewBox="0 0 110 19" fill="none" xmlns="http://www.w3.org/2000/svg">
<g clip-path="url(#clip0_2643_611)">
<mask id="mask0_2643_611" style="mask-type:luminance" maskUnits="userSpaceOnUse" x="0" y="2" width="110" height="15">
<path d="M109.9 2.0918H0.0908203V16.9824H109.9V2.0918Z" fill="white"/>
</mask>
<g mask="url(#mask0_2643_611)">
<path d="M12.07 16.9772H3.19293C1.48163 16.9772 0.0908203 15.6045 0.0908203 13.9154V5.15362C0.0908203 3.46454 1.48163 2.0918 3.19293 2.0918H12.07C13.7813 2.0918 15.1721 3.46454 15.1721 5.15362V13.9154C15.1721 15.6045 13.7813 16.9772 12.07 16.9772Z" fill="#EF3346"/>
<path d="M5.46528 8.68278C5.46528 8.56054 5.37822 8.47461 5.25437 8.47461H3.79075C3.66691 8.47461 3.57983 8.56054 3.57983 8.68278V10.1274C3.57983 10.2496 3.66691 10.3356 3.79075 10.3356H5.25437C5.37822 10.3356 5.46528 10.2496 5.46528 10.1274V8.68278Z" fill="#191E3B"/>
<path d="M7.03023 11.6719H8.49385C8.6102 11.6719 8.70477 11.7652 8.70477 11.8801V13.3247C8.70477 13.4395 8.6102 13.5328 8.49385 13.5328H7.03023C6.91391 13.5328 6.81934 13.4395 6.81934 13.3247V11.8801C6.81934 11.7652 6.91391 11.6719 7.03023 11.6719Z" fill="#191E3B"/>
<path d="M7.03023 8.47266H8.49385C8.6102 8.47266 8.70477 8.566 8.70477 8.68081V10.1254C8.70477 10.2403 8.6102 10.3336 8.49385 10.3336H7.03023C6.91391 10.3336 6.81934 10.2403 6.81934 10.1254V8.68081C6.81934 8.566 6.91391 8.47266 7.03023 8.47266Z" fill="#FDDB32"/>
<path d="M12.4553 5.71853C12.4553 5.19402 12.026 4.76953 11.4938 4.76953H4.28455C4.13894 4.76953 4.05188 4.81991 3.96407 4.91325L2.5147 6.34378C2.40513 6.45194 2.47792 6.60974 2.63855 6.60974H10.5976V14.4655C10.5976 14.6232 10.7575 14.6951 10.8671 14.5877L12.3164 13.1572C12.4035 13.0712 12.4621 12.9845 12.4621 12.8408V5.71853H12.4545H12.4553Z" fill="#191E3B"/>
<path d="M50.932 10.3185C51.1453 8.84573 51.9258 7.88191 53.4825 7.88191C55.0392 7.88191 55.9151 8.78202 56.0412 10.3185H50.9328H50.932ZM53.5178 6.43359C51.0312 6.43359 49.0459 8.19973 49.0459 11.1304C49.0459 14.0611 50.7991 15.968 53.7506 15.968C55.4497 15.968 56.863 15.2265 57.7398 14.2019C57.7939 14.1486 57.8119 14.096 57.8119 14.0434C57.8119 13.9908 57.7939 13.9374 57.7398 13.8848L56.9163 13.0899C56.8623 13.0366 56.8092 13.0188 56.7558 13.0188C56.7025 13.0188 56.6485 13.0544 56.5952 13.1077C55.9158 13.8315 55.0385 14.4501 53.7686 14.4501C51.9168 14.4501 51.0251 13.324 50.8892 11.6957H57.7586C57.8838 11.6957 57.9732 11.6068 57.9732 11.4838V11.1312C57.9717 8.44791 56.3264 6.43433 53.5178 6.43433" fill="#191E3B"/>
<path d="M29.7791 3.3418H28.2945C28.1691 3.3418 28.0797 3.43069 28.0797 3.55368V8.49794H22.0511V3.55368C22.0511 3.42995 21.9618 3.3418 21.8366 3.3418H20.352C20.2266 3.3418 20.1372 3.43069 20.1372 3.55368V15.4906C20.1372 15.6143 20.2266 15.7025 20.352 15.7025H21.8366C21.9618 15.7025 22.0511 15.6136 22.0511 15.4906V10.1581H28.0797V15.4906C28.0797 15.6143 28.1691 15.7025 28.2945 15.7025H29.7791C29.9045 15.7025 29.9937 15.6136 29.9937 15.4906V3.55294C29.9937 3.42921 29.9037 3.3418 29.7791 3.3418Z" fill="#191E3B"/>
<path d="M61.2281 3.3418H59.7966C59.6714 3.3418 59.582 3.43069 59.582 3.55368V15.4906C59.582 15.6143 59.6714 15.7025 59.7966 15.7025H61.2281C61.3533 15.7025 61.4426 15.6136 61.4426 15.4906V3.55294C61.4426 3.42921 61.3525 3.3418 61.2281 3.3418Z" fill="#191E3B"/>
<path d="M36.5396 14.4153C34.5543 14.4153 33.4982 12.9499 33.4982 11.2015C33.4982 9.45321 34.5536 7.98785 36.5396 7.98785C38.5256 7.98785 39.5809 9.45321 39.5809 11.2015C39.5809 12.9499 38.5248 14.4153 36.5396 14.4153ZM36.5396 6.43359C33.8742 6.43359 31.6382 8.37604 31.6382 11.2008C31.6382 14.0256 33.8742 15.9688 36.5396 15.9688C39.2047 15.9688 41.4408 14.0263 41.4408 11.2008C41.4408 8.3753 39.2047 6.43359 36.5396 6.43359Z" fill="#191E3B"/>
<path d="M91.3111 14.4153C89.3259 14.4153 88.2698 12.9499 88.2698 11.2015C88.2698 9.45321 89.3251 7.98785 91.3111 7.98785C93.2971 7.98785 94.3524 9.45321 94.3524 11.2015C94.3524 12.9499 93.2964 14.4153 91.3111 14.4153ZM91.3111 6.43359C88.6458 6.43359 86.4099 8.37604 86.4099 11.2008C86.4099 14.0256 88.6458 15.9688 91.3111 15.9688C93.9765 15.9688 96.2123 14.0263 96.2123 11.2008C96.2123 8.3753 93.9765 6.43359 91.3111 6.43359Z" fill="#191E3B"/>
<path d="M47.952 6.71298H45.6266V3.72671C45.6266 3.56817 45.4661 3.49706 45.358 3.603L43.9079 5.03353C43.8178 5.12243 43.7653 5.20984 43.7653 5.35133V6.71298H42.174C42.0488 6.71298 41.9595 6.80187 41.9595 6.92486V7.91386C41.9595 8.03757 42.0488 8.12572 42.174 8.12572H43.7668V12.9463C43.7668 14.6235 44.5723 15.7007 46.2714 15.7007H47.9528C48.0774 15.7007 48.1673 15.6125 48.1673 15.4888V14.359C48.1673 14.2353 48.0782 14.1472 47.9528 14.1472H46.7721C45.9307 14.1472 45.6274 13.8293 45.6274 12.9996V8.12646H47.9535C48.0782 8.12646 48.1681 8.03831 48.1681 7.9146V6.9256C48.1681 6.80187 48.0782 6.71446 47.9528 6.71446" fill="#191E3B"/>
<path d="M74.2962 13.9082H72.8611C72.7184 13.9082 72.6216 14.0015 72.6216 14.1445V15.4661C72.6216 15.6069 72.7184 15.7025 72.8611 15.7025H74.2962C74.4388 15.7025 74.5357 15.6091 74.5357 15.4661V14.1445C74.5357 14.0015 74.4411 13.9082 74.2962 13.9082Z" fill="#191E3B"/>
<path d="M67.1506 10.3165C65.684 9.99873 64.9678 9.7513 64.9678 9.00971C64.9678 8.26815 65.6119 7.87996 66.7571 7.87996C67.7772 7.87996 68.5819 8.33927 69.1013 9.06305C69.1734 9.16899 69.2978 9.18678 69.4059 9.11639L70.3719 8.49781C70.4793 8.42669 70.5146 8.32149 70.4433 8.19778C69.656 7.01468 68.4039 6.43164 66.7759 6.43164C64.9506 6.43164 63.3233 7.31398 63.3233 9.11565C63.3233 10.9173 64.8439 11.4989 66.8472 11.9234C68.2598 12.2234 68.8865 12.4531 68.8865 13.2835C68.8865 14.114 68.1533 14.52 66.9186 14.52C65.684 14.52 64.8072 14.0258 64.2352 13.1954C64.1633 13.0717 64.0387 13.0368 63.9125 13.1243L62.9465 13.7955C62.8392 13.8666 62.8212 13.9718 62.8745 14.0777C63.6079 15.2964 64.9678 15.9846 66.8998 15.9846C69.3143 15.9846 70.7106 14.8015 70.7106 13.2124C70.7106 11.3574 69.1546 10.7566 67.1513 10.3158" fill="#191E3B"/>
<path d="M84.6784 12.9221L83.8542 12.5414L83.8474 12.5384L83.8409 12.5362C83.7883 12.5169 83.7365 12.5073 83.6862 12.5073C83.5991 12.5073 83.4369 12.5384 83.332 12.7458C82.7893 13.8556 81.9658 14.3712 80.741 14.3712C79.0926 14.3712 78.0276 13.1355 78.0276 11.2234C78.0276 9.31137 79.0671 8.02308 80.741 8.02308C81.956 8.02308 82.7097 8.47719 83.2599 9.54028C83.3327 9.70252 83.4684 9.79957 83.6246 9.79957C83.6757 9.79957 83.7275 9.78846 83.7778 9.7677L83.7815 9.76622L83.7853 9.76476L84.6296 9.36545C84.8053 9.28914 84.9486 9.10245 84.8286 8.80538C84.5763 8.17715 84.0862 7.60598 83.4489 7.19556C82.7044 6.71626 81.7685 6.46289 80.7425 6.46289C79.4656 6.46289 78.3001 6.9422 77.4586 7.81194C76.6143 8.68536 76.1489 9.90329 76.1489 11.2412C76.1489 13.9593 78.0809 15.9321 80.7425 15.9321C83.6809 15.9321 84.6672 14.0319 84.8997 13.4496C84.9853 13.2251 84.896 13.0147 84.6792 12.9236L84.6784 12.9221Z" fill="#191E3B"/>
<path d="M109.109 7.35546C108.552 6.79316 107.731 6.49609 106.736 6.49609C105.479 6.49609 104.578 7.14802 104.088 7.83995C103.68 7.14506 102.863 6.49609 101.618 6.49609C100.722 6.49609 100.021 6.78798 99.4869 7.38434V7.1458C99.4869 6.92428 99.3181 6.75761 99.0936 6.75761H98.0878C97.8635 6.75761 97.6946 6.92428 97.6946 7.1458V15.3156C97.6946 15.5371 97.8635 15.7038 98.0878 15.7038H99.1289C99.3534 15.7038 99.5222 15.5371 99.5222 15.3156V10.1424C99.5222 9.50458 99.6889 8.02219 101.229 8.02219C102.366 8.02219 102.919 8.61337 102.919 9.82907V15.3164C102.919 15.5379 103.087 15.7045 103.312 15.7045H104.336C104.56 15.7045 104.729 15.5379 104.729 15.3164V10.1432C104.729 9.35123 104.958 8.02293 106.489 8.02293C107.605 8.02293 108.125 8.59708 108.125 9.82981V15.3171C108.125 15.5386 108.294 15.7053 108.519 15.7053H109.542C109.767 15.7053 109.936 15.5386 109.936 15.3171V9.62089C109.936 8.68523 109.65 7.90219 109.109 7.35768V7.35546Z" fill="#191E3B"/>
</g>
</g>
<defs>
<clipPath id="clip0_2643_611">
<rect width="110" height="19" fill="white"/>
</clipPath>
</defs>
</svg>
