<svg width="14" height="22" viewBox="0 0 14 22" fill="none" xmlns="http://www.w3.org/2000/svg">
<path d="M9.6054 15.1467L12.6712 10.3744C14.0236 8.26981 14.1147 5.7032 12.914 3.50759C11.7133 1.31197 9.50422 0 7.00169 0C4.49916 0 2.29005 1.31197 1.08938 3.50759C-0.111298 5.69983 -0.0202363 8.26644 1.33221 10.3744L4.3946 15.1433C1.70995 15.6189 0 16.8128 0 18.253C0.00337268 20.1821 2.94435 21.5852 7.00169 21.5852C11.059 21.5852 14 20.1821 14 18.253C14 16.8061 12.2934 15.6155 9.6054 15.1467ZM9.90894 6.3575C9.90894 7.95615 8.60371 9.25801 7.00169 9.25801C5.39966 9.25801 4.09443 7.95615 4.09443 6.3575C4.09443 4.75548 5.39966 3.45025 7.00169 3.45025C8.60371 3.45025 9.90894 4.75211 9.90894 6.3575ZM6.52277 18.4553C6.62732 18.6206 6.80607 18.7184 7.00169 18.7184C7.20067 18.7184 7.37943 18.6206 7.48061 18.4587L8.63406 16.661C11.1164 16.9545 12.3609 17.8381 12.3609 18.253C12.3609 18.7589 10.5363 19.946 7.00169 19.946C3.46712 19.946 1.6425 18.7589 1.6425 18.253C1.6425 17.8381 2.88702 16.9578 5.36931 16.661L6.52277 18.4553Z" fill="#7A542A"/>
</svg>
