<svg width="20" height="12" viewBox="0 0 20 12" fill="none" xmlns="http://www.w3.org/2000/svg">
<path d="M1.46341 0C1.27171 0 1.08974 0.0381 0.922256 0.100962L9.41311 6.9375C9.78473 7.23702 10.1991 7.23722 10.5716 6.9375L19.0701 0.0937359C18.9051 0.0329744 18.7249 0 18.5366 0H1.46341ZM0.0152439 1.18269C0.00532195 1.24805 0 1.31658 0 1.38462V10.6154C0 11.3824 0.652698 12 1.46341 12H18.5366C19.3473 12 20 11.3824 20 10.6154V1.38462C20 1.31658 19.9947 1.24805 19.9848 1.18269L11.5244 7.99038C10.6474 8.69603 9.33734 8.69716 8.46037 7.99038L0.0152439 1.18269Z" fill="#7A542A"/>
</svg>
