<svg width="33" height="33" viewBox="0 0 33 33" fill="none" xmlns="http://www.w3.org/2000/svg">
<path d="M30.5836 28.6582H28.6866V29.411H30.5836V28.6582Z" fill="black"/>
<path d="M16.1008 28.6582H14.2076V29.411H16.1008V28.6582Z" fill="black"/>
<path d="M24.0962 15.8288H20.4642L20.355 15.6105L18.7064 12.0875C18.6425 11.9483 18.6387 11.7864 18.6989 11.6434C18.7591 11.5004 18.8796 11.3912 19.0264 11.3423L19.9749 11.0299C20.2534 10.9396 20.547 10.8906 20.8405 10.8906C21.3825 10.8906 21.9095 11.0487 22.3611 11.3423C22.8391 11.6547 23.4338 11.7525 23.9871 11.6058L25.3985 11.2331C25.5152 11.203 25.6357 11.2105 25.7448 11.2595C25.8464 11.3046 25.933 11.3762 25.9932 11.4703C26.0873 11.6208 26.1024 11.809 26.0309 11.9746L24.435 15.6067L24.3258 15.8212L24.0962 15.8288ZM20.9346 15.076H23.8516L25.1689 12.08L24.1828 12.3397C23.4225 12.5392 22.6133 12.4074 21.9546 11.9784C21.6234 11.7638 21.2395 11.6472 20.8443 11.6472C20.6298 11.6472 20.4152 11.681 20.212 11.7488L19.4893 11.9859L20.9346 15.076Z" fill="black"/>
<path d="M23.2685 15.2572L22.623 15.6445L23.9592 17.8715L24.6047 17.4842L23.2685 15.2572Z" fill="black"/>
<path d="M21.5206 15.2613L20.1844 17.4883L20.8299 17.8756L22.1661 15.6486L21.5206 15.2613Z" fill="black"/>
<path d="M22.7713 28.0684H22.0186V29.4948H22.7713V28.0684Z" fill="black"/>
<path d="M22.7713 20.0293H22.0186V21.4257H22.7713V20.0293Z" fill="black"/>
<path d="M22.9918 28.4488H21.7949C20.711 28.4488 19.834 27.5944 19.834 26.5405H20.5867C20.5867 27.1766 21.1287 27.696 21.7949 27.696H22.9918C23.7333 27.696 24.3355 27.1202 24.3355 26.4126C24.3355 26.0738 24.1963 25.7501 23.9478 25.5093C23.6919 25.2646 23.3532 25.1291 22.9918 25.1291H21.7949C20.6394 25.1291 19.6985 24.2145 19.6985 23.0929C19.6985 22.5471 19.9168 22.0315 20.3158 21.6476C20.711 21.2674 21.2379 21.0566 21.7949 21.0566H22.9918C24.0758 21.0566 24.9528 21.911 24.9528 22.9649H24.2C24.2 22.3288 23.658 21.8094 22.9918 21.8094H21.7949C21.4336 21.8094 21.0949 21.9449 20.8389 22.1896C20.5867 22.4304 20.4513 22.7541 20.4513 23.0929C20.4513 23.8005 21.0535 24.3763 21.7949 24.3763H22.9918C23.5489 24.3763 24.0758 24.5871 24.471 24.9673C24.87 25.3512 25.0883 25.8668 25.0883 26.4126C25.0883 27.5342 24.1473 28.4488 22.9918 28.4488Z" fill="black"/>
<path d="M14.5509 29.4068H3.59814V14.6639H0.417704C0.244568 14.6639 0.0864869 14.5547 0.0262657 14.3929C-0.0339556 14.231 0.0112106 14.0466 0.142945 13.9299L16.3349 0L32.5232 13.9299C32.6549 14.0466 32.7038 14.231 32.6436 14.3929C32.5834 14.5547 32.4253 14.6639 32.2522 14.6639H29.0717V19.858L28.3829 18.8304C27.3667 17.3136 25.8311 16.2484 24.0621 15.8307H20.7273C19.4965 16.1242 18.3599 16.7377 17.4377 17.611C16.1505 18.8304 15.3601 20.4715 15.2133 22.2367L14.5509 29.4068ZM4.3509 28.654H13.8659L14.4643 22.1727C14.6299 20.2268 15.4994 18.4126 16.9221 17.0652C17.9534 16.0866 19.2293 15.4016 20.6106 15.0854L20.8967 15.0177L20.9268 15.0779H23.8626L23.8927 15.0214L24.1825 15.0854C25.7934 15.4543 27.2312 16.3087 28.3227 17.5244V13.9111H31.3526L16.3349 0.993651L1.32102 13.9111H4.3509V28.654Z" fill="black"/>
<path d="M10.091 8.51681L9.198 9.28516L9.68895 9.85575L10.5819 9.08741L10.091 8.51681Z" fill="black"/>
<path d="M14.2088 29.4053H3.59853V14.6624H2.94739L7.97586 10.334L8.46516 10.9061L4.3513 14.4478V28.6525H14.2088V29.4053Z" fill="black"/>
<path d="M29.0721 18.6253H28.3193V14.4512L25.3534 11.8993L16.3353 4.13832L11.6757 8.15057L11.1826 7.57846L16.3353 3.14844L29.7232 14.6658H29.0721V18.6253Z" fill="black"/>
<path d="M30.7275 32.6192H14.0613C12.9698 32.6192 12.0815 31.7309 12.0815 30.6394C12.0815 30.1125 12.2886 29.6119 12.6612 29.2393C12.9886 28.9118 13.4102 28.7123 13.8618 28.6672L14.4603 22.1746C14.6259 20.2287 15.4953 18.4145 16.9181 17.0671C17.9494 16.0885 19.2253 15.4034 20.6066 15.0873L20.8927 15.0195L20.9228 15.0798H23.8586L23.8887 15.0233L24.1785 15.0873C26.1583 15.5427 27.8708 16.7245 29.0075 18.4145C29.7565 19.5324 30.2119 20.8346 30.3248 22.1783L30.9233 28.6672C31.9207 28.7688 32.7036 29.6119 32.7036 30.6357C32.7036 31.1664 32.4965 31.6632 32.1239 32.0358C31.7551 32.4122 31.2545 32.6192 30.7275 32.6192ZM14.0613 29.4124C13.7339 29.4124 13.4252 29.5404 13.1956 29.7737C12.966 30.0071 12.8343 30.312 12.8343 30.6394C12.8343 31.3169 13.3838 31.8664 14.0613 31.8664H30.7275C31.055 31.8664 31.3636 31.7385 31.5932 31.5051C31.8266 31.2717 31.9546 30.9669 31.9546 30.6357C31.9546 29.9582 31.405 29.4086 30.7275 29.4086H30.2382L29.5758 22.2423C29.4742 21.0228 29.0602 19.8448 28.3827 18.8323C27.3664 17.3155 25.8308 16.2503 24.0618 15.8288H20.7271C19.4963 16.1223 18.3596 16.7358 17.4375 17.609C16.1502 18.8285 15.3598 20.4696 15.213 22.2348L14.5807 29.0699L14.5356 29.4011L14.0613 29.4124Z" fill="black"/>
<path d="M14.5494 29.4061H11.3652V17.5086C11.3652 17.2075 11.6099 16.9629 11.911 16.9629H18.1213L17.4363 17.614C16.1491 18.8335 15.3587 20.4745 15.2119 22.2398L14.5494 29.4061ZM12.118 28.6533H13.8644L14.4629 22.172C14.6021 20.5235 15.2495 18.969 16.3071 17.7157H12.118V28.6533Z" fill="black"/>
<path d="M27.7606 10.8242L23.579 7.22603V3.66921C23.579 3.45843 23.7484 3.28906 23.9591 3.28906H27.3804C27.5912 3.28906 27.7606 3.45843 27.7606 3.66921V10.8242ZM24.3317 6.87975L27.0078 9.18322V4.04183H24.3317V6.87975Z" fill="black"/>
</svg>
