<svg width="18" height="19" viewBox="0 0 18 19" fill="none" xmlns="http://www.w3.org/2000/svg">
<path d="M14.8877 12.1907C14.4226 11.7704 13.8217 11.5385 13.1956 11.5385C12.4832 11.5385 11.801 11.8421 11.3236 12.3696L10.7744 12.9763C10.54 13.2357 10.365 13.5341 10.254 13.8637L10.205 14.0105L10.0608 13.9535C7.6124 12.9868 5.61732 11.1556 4.44275 8.79728L4.36504 8.64145L4.53217 8.59118C4.9712 8.45917 5.36581 8.20886 5.67444 7.86752L6.22307 7.26114C6.67562 6.76094 6.90593 6.11479 6.87182 5.4416C6.83831 4.7684 6.54421 4.1485 6.04443 3.69654L5.11814 2.85923C4.65308 2.43836 4.05237 2.20703 3.42624 2.20703C2.71391 2.20703 2.03145 2.50941 1.55387 3.03727L1.00504 3.64486C0.935001 3.72238 0.867179 3.80756 0.803395 3.89981L0.778164 3.92767C0.260014 4.37074 -0.180826 5.44886 0.074716 6.76922C1.25413 12.9113 6.42815 17.5914 12.6578 18.15C13.4751 18.2244 14.2444 18.0555 14.8275 17.6972C15.0611 17.5621 15.267 17.3962 15.4438 17.2004L15.9928 16.5932C16.926 15.5611 16.8458 13.9622 15.814 13.029L14.8877 12.1907Z" fill="#7A542A"/>
<path d="M9.34478 0C9.0198 0 8.75659 0.263626 8.75659 0.588617C8.75659 0.913204 9.02001 1.17663 9.34478 1.17663C13.468 1.17663 16.8225 4.5315 16.8225 8.65485C16.8225 8.97943 17.0859 9.24286 17.4109 9.24286C17.7357 9.24286 17.9989 8.97964 17.9989 8.65485C17.9989 3.88233 14.1167 0 9.34478 0Z" fill="#7A542A"/>
<path d="M13.9423 8.74953C13.9423 9.07452 14.2057 9.33775 14.5305 9.33775C14.8553 9.33775 15.1187 9.07432 15.1187 8.74953C15.1187 5.51275 12.4852 2.87891 9.2479 2.87891C8.92312 2.87891 8.65991 3.14213 8.65991 3.46672C8.65991 3.79171 8.92312 4.05493 9.2479 4.05493C11.8368 4.05493 13.9423 6.16071 13.9423 8.74953Z" fill="#7A542A"/>
</svg>
