<svg width="81" height="33" viewBox="0 0 81 33" fill="none" xmlns="http://www.w3.org/2000/svg">
<g clip-path="url(#clip0_2643_637)">
<path d="M10.8015 0.0546875C16.736 0.0546875 21.5555 4.9041 21.5555 10.891C21.5555 11.8265 21.4357 12.732 21.2187 13.6001C20.9717 14.558 20.5976 15.471 20.1186 16.3092C19.6471 17.1324 19.0709 17.8882 18.4048 18.5543C16.4591 20.515 13.7725 21.7274 10.8089 21.7274V21.5852C10.7042 18.4944 9.37956 15.718 7.31407 13.7273C5.41323 11.8938 2.86879 10.7264 0.0698989 10.5917C0.144735 7.71795 1.33464 5.12861 3.21303 3.22776C5.14382 1.26704 7.83045 0.0546875 10.8015 0.0546875ZM0.0549316 32.5637C5.98947 32.5637 10.8089 27.7143 10.8089 21.7274H0.0549316V32.5637ZM48.766 32.5861H50.3376V22.3784L48.6912 22.6778V26.0828C48.1224 25.574 47.389 25.2746 46.5958 25.2746C44.68 25.2746 43.056 26.9509 43.056 29.0239C43.056 31.0969 44.6575 32.7732 46.5658 32.7732C47.419 32.7732 48.1823 32.429 48.766 31.8602V32.5861ZM58.3451 31.2091L57.013 30.2662C56.6239 30.8649 55.9653 31.1942 55.2469 31.1942C54.2141 31.1942 53.4059 30.5206 53.1814 29.6076H58.5472C58.5771 29.3682 58.5921 29.1586 58.5921 28.9042C58.5921 26.8387 57.1702 25.2746 55.1122 25.2746C52.9269 25.2746 51.4377 26.9509 51.4377 29.0239C51.4377 31.0969 53.0542 32.7732 55.2319 32.7732C56.5266 32.7657 57.6566 32.167 58.3451 31.2091ZM63.9653 26.9958V25.4542C63.7109 25.4093 63.5163 25.3794 63.2619 25.3794C62.304 25.3794 61.5406 25.8583 61.3011 26.6217V25.3794L59.6847 25.6787V32.5861H61.3311V26.9958H63.9653ZM38.693 26.8462C39.7108 26.8462 40.3095 27.4748 40.3095 28.762V32.5861H41.9559V28.5375C41.9559 26.7564 40.998 25.2671 39.0597 25.2671C38.1617 25.2671 37.3834 25.6114 36.7997 26.1801V25.3719L35.2281 25.6712V32.5787H36.8745V27.7966C37.2562 27.2204 37.8998 26.8462 38.693 26.8462ZM46.8801 31.1942C45.6828 31.1942 44.7398 30.2213 44.7398 29.0239C44.7398 27.8265 45.6828 26.8537 46.8801 26.8537C47.6435 26.8537 48.317 27.2578 48.6912 27.8714V30.1764C48.317 30.7901 47.6435 31.1942 46.8801 31.1942ZM55.1047 26.7713C56.0476 26.7713 56.7062 27.37 56.8708 28.2681H53.1664C53.3834 27.4 54.0719 26.7713 55.1047 26.7713ZM32.2346 32.5861H33.881V25.4542H32.2346V32.5861ZM25.1102 22.4533V32.5861H26.8314V28.5375H30.5059V26.8761H26.8314V24.1146H30.9998V22.4533H25.1102ZM33.0429 22.3186C32.4442 22.3186 31.9353 22.8125 31.9353 23.4261C31.9353 24.0398 32.4442 24.5487 33.0429 24.5487C33.6565 24.5487 34.1804 24.0398 34.1804 23.4261C34.1804 22.8125 33.6565 22.3186 33.0429 22.3186ZM50.1131 17.9481C52.0289 17.9481 53.6529 16.2718 53.6529 14.1988C53.6529 12.1333 52.0514 10.4495 50.143 10.4495C49.3049 10.4495 48.5415 10.7937 47.9578 11.3475V10.5543L46.3862 10.8536V20.4776H48.0326V17.1474C48.6014 17.6488 49.3198 17.9481 50.1131 17.9481ZM61.5032 16.384L60.1711 15.4411C59.782 16.0398 59.1234 16.3691 58.405 16.3691C57.3872 16.3691 56.5939 15.7105 56.3395 14.8125H61.7053C61.7352 14.558 61.7502 14.3485 61.7502 14.0791C61.7502 12.0136 60.3283 10.4495 58.2703 10.4495C56.085 10.4495 54.5958 12.1258 54.5958 14.1988C54.5958 16.2643 56.2123 17.9481 58.39 17.9481C59.6922 17.9481 60.8147 17.3494 61.5032 16.384ZM37.5106 12.1782V10.6291C37.2562 10.5842 37.0616 10.5543 36.8071 10.5543C35.8642 10.5543 35.1009 11.0332 34.8614 11.7965V10.5543L33.2449 10.8536V17.761H34.8764V12.1707H37.5106V12.1782ZM67.1309 12.1782V10.6291C66.8765 10.5842 66.6819 10.5543 66.4274 10.5543C65.4845 10.5543 64.7212 11.0332 64.4817 11.7965V10.5543L62.8503 10.8536V17.761H64.4967V12.1707H67.1309V12.1782ZM72.811 17.4692L72.1674 16.0473C71.8531 16.1969 71.419 16.3765 70.9102 16.3765C70.0271 16.3765 69.5781 15.8227 69.5781 14.9546V12.1782H72.2946V10.6291H69.5781V8.5636L67.9466 8.86295V14.9472C67.9466 16.7732 68.9494 17.9481 70.8578 17.9481C71.666 17.9481 72.347 17.6787 72.811 17.4692ZM41.5742 16.3691C40.4367 16.3691 39.5237 15.4261 39.5237 14.1988C39.5237 12.9715 40.4367 12.0285 41.5742 12.0285C42.6968 12.0285 43.6248 12.9715 43.6248 14.1988C43.6248 15.4261 42.6968 16.3691 41.5742 16.3691ZM49.8287 16.3691C49.0803 16.3691 48.4068 15.9799 48.0326 15.3812V13.0164C48.4068 12.4177 49.0803 12.0285 49.8287 12.0285C51.0261 12.0285 51.969 13.0014 51.969 14.1988C51.969 15.3962 51.0261 16.3691 49.8287 16.3691ZM58.2703 11.9612C59.2282 11.9612 59.8718 12.5599 60.0364 13.4429H56.332C56.549 12.5973 57.2375 11.9612 58.2703 11.9612ZM76.463 20.4776L80.6614 10.6291H78.8354L76.8297 15.486L74.7792 10.6291H72.9382L75.9541 17.4617L74.6819 20.4776H76.463ZM41.5742 17.9481C43.6098 17.9481 45.2936 16.3017 45.2936 14.1988C45.2936 12.1034 43.6173 10.4495 41.5742 10.4495C39.5237 10.4495 37.8399 12.0959 37.8399 14.1988C37.8399 16.2942 39.5162 17.9481 41.5742 17.9481ZM28.7847 9.297C29.7276 9.297 30.4161 9.95556 30.4161 10.8087C30.4161 11.6768 29.7126 12.3803 28.7547 12.3803H26.8539V9.28952H28.7847V9.297ZM28.8445 7.63563H25.1102V17.7685H26.8464V14.0491H28.7772C30.6631 14.0491 32.1972 12.6272 32.1972 10.8087C32.2047 9.01262 30.7005 7.63563 28.8445 7.63563Z" fill="#EF5E4E"/>
</g>
<defs>
<clipPath id="clip0_2643_637">
<rect width="80.6738" height="32.7784" fill="white"/>
</clipPath>
</defs>
</svg>
