<svg width="11" height="33" viewBox="0 0 11 33" fill="none" xmlns="http://www.w3.org/2000/svg">
<path fill-rule="evenodd" clip-rule="evenodd" d="M5.52404 10.8297V0.352475C5.52404 0.158069 5.36633 0 5.17193 0C4.97716 0 4.81945 0.158069 4.81945 0.352475V11.5444L4.44409 11.9249C4.12541 11.5641 3.6988 11.0023 3.30745 10.4699C2.665 9.59785 2.31797 8.54333 2.31797 7.46047V0.352475C2.31797 0.158069 2.15991 0 1.9655 0C1.77109 0 1.61303 0.158069 1.61303 0.352475V6.67957C1.19805 7.05312 0 8.30895 0 10.3686C0 10.9598 0.0675882 11.7995 0.441139 12.7356C-0.14099 14.2044 -0.0828496 15.7567 0.471662 17.042C0.281616 17.3254 0 17.917 0 18.9362C0 19.5456 0.120641 20.0929 0.339757 20.5743C0.192953 20.8407 0.030888 21.3581 0.030888 22.3451C0.030888 23.3302 0.528713 24.5013 1.61303 25.332V32.3513C1.61303 32.5461 1.77109 32.7038 1.9655 32.7038C2.15991 32.7038 2.31797 32.5461 2.31797 32.3513V25.7764C2.99058 26.122 3.82053 26.3517 4.82018 26.3956L4.83399 32.3524C4.83472 32.5468 4.99278 32.7042 5.18719 32.7038C5.38196 32.7035 5.5393 32.545 5.53894 32.3506L5.52513 26.3953C6.52042 26.3509 7.35073 26.1184 8.02552 25.7706V32.3513C8.02552 32.5461 8.18359 32.7038 8.37799 32.7038C8.5724 32.7038 8.73047 32.5461 8.73047 32.3513V25.3266C9.83077 24.4879 10.342 23.3084 10.342 22.3451C10.342 21.3411 10.1658 20.8014 10.0314 20.5362C10.2283 20.082 10.342 19.5522 10.342 18.9362C10.342 17.7843 9.91326 16.9747 9.66507 16.603C10.043 16.0438 10.342 15.3621 10.342 14.6306C10.342 13.2828 9.88637 12.4329 9.6251 12.0564C10.0572 11.3744 10.342 10.6306 10.342 9.82205C10.342 8.15052 9.1578 7.02333 8.73047 6.67085V0.352475C8.73047 0.158069 8.5724 0 8.37799 0C8.18359 0 8.02552 0.158069 8.02552 0.352475V6.6734C8.02552 7.71156 7.61708 8.70757 6.88815 9.44668L5.52404 10.8297ZM9.54552 21.3363C8.42414 22.7197 6.38197 23.1013 5.17193 23.1013C3.36377 23.1013 1.75111 22.4962 0.824863 21.3556C0.776898 21.5885 0.735837 21.9141 0.735837 22.3451C0.735837 23.8215 2.1243 25.6983 5.17193 25.6983C8.22065 25.6983 9.63745 23.7848 9.63745 22.3451C9.63745 21.9112 9.59603 21.5794 9.54552 21.3363ZM9.20249 17.1982C8.92306 17.5147 8.65598 17.7553 8.48955 17.8952C8.56622 18.6394 8.11709 19.3505 7.3907 19.591L7.38997 19.5914C6.88089 19.7578 6.19483 19.8421 5.19955 19.9115C5.19736 19.9119 5.19555 19.9119 5.19337 19.9123C3.27329 20.0453 1.75874 19.1557 0.879007 17.8029C0.787073 18.0572 0.704587 18.4272 0.704587 18.9362C0.704587 21.2233 2.7682 22.3967 5.17193 22.3967C6.64578 22.3967 9.63745 21.8145 9.63745 18.9362C9.63745 18.1441 9.39581 17.5481 9.20249 17.1982ZM0.889181 13.6386C0.204218 16.3657 1.88628 19.2099 4.80783 19.22C4.7486 18.4486 4.39503 17.1862 2.35468 15.377C1.70496 14.801 1.23221 14.2116 0.889181 13.6386ZM1.61848 7.70793C1.20168 8.24245 0.704587 9.13818 0.704587 10.3686C0.704587 11.3726 0.931696 13.1735 2.82234 14.8497C5.10761 16.8759 5.46045 18.312 5.51459 19.1815C6.23953 19.1237 6.76606 19.0536 7.1705 18.9217C7.61345 18.7745 7.8729 18.316 7.77116 17.8599L7.77079 17.8596C7.76898 17.8508 7.76716 17.8418 7.76498 17.8334C7.76425 17.8298 7.76353 17.8265 7.7628 17.8229C7.49935 16.6528 7.02079 15.7538 6.42267 14.974C6.40595 14.9565 6.39178 14.9377 6.37943 14.918C5.74534 14.1055 4.98188 13.4209 4.1999 12.6887L4.19917 12.688L4.19844 12.6876C3.86305 12.3733 3.26857 11.607 2.73985 10.8882C2.05707 9.96159 1.66753 8.85402 1.61848 7.70793ZM9.17996 12.6782C9.14435 12.7229 9.10802 12.7676 9.07131 12.8123C8.46702 13.5427 7.73918 14.1913 7.14397 14.768C7.62944 15.4395 8.03279 16.196 8.30604 17.1143C8.49536 16.9337 8.72611 16.6909 8.94341 16.4017C8.94595 16.3981 8.94886 16.3941 8.95176 16.3904C8.9812 16.3512 9.0099 16.3112 9.03861 16.2705C9.36092 15.8098 9.63745 15.2447 9.63745 14.6306C9.63745 13.6938 9.38236 13.0452 9.17996 12.6782ZM8.64762 7.54877C8.47538 8.44703 8.04114 9.28135 7.38997 9.9416L4.94518 12.4205C5.57092 13.0059 6.17448 13.5761 6.70756 14.2102C7.27733 13.6626 7.95938 13.0506 8.52843 12.3628C8.65561 12.2091 8.77734 12.0514 8.89072 11.89C8.89762 11.878 8.90561 11.8668 8.91434 11.8559C9.33949 11.2399 9.63745 10.5662 9.63745 9.82205C9.63745 8.77843 9.07422 7.99354 8.64762 7.54877Z" fill="black"/>
</svg>
