<svg width="33" height="33" viewBox="0 0 33 33" fill="none" xmlns="http://www.w3.org/2000/svg">
<path d="M27.8274 9.25997C27.9616 9.37181 28.1382 9.37181 28.2626 9.25997L30.1144 7.71607C30.4252 7.45694 30.4252 7.3451 30.2485 7.20053C30.0719 7.05323 29.8952 7.05323 29.7643 7.20053L28.4 8.37345V4.96647C28.4 4.78371 28.2658 4.67188 28.0466 4.67188C27.8274 4.67188 27.6933 4.78371 27.6933 4.96647V8.37345L26.3289 7.20053C26.1948 7.05323 25.9756 7.08869 25.8447 7.20053C25.668 7.34782 25.6255 7.49512 25.8447 7.6397L27.8208 9.25179L27.8274 9.25997Z" fill="black"/>
<path d="M28.256 11.7637C28.1218 11.6517 27.9451 11.6517 27.8208 11.7637L25.8447 13.3786C25.6255 13.5262 25.668 13.6738 25.8447 13.8186C25.9788 13.9306 26.198 13.9661 26.3289 13.8186L27.6933 12.6436V16.0565C27.6933 16.2396 27.8274 16.3517 28.0466 16.3517C28.2658 16.3517 28.4 16.2396 28.4 16.0565V12.6436L29.7643 13.8186C29.8985 13.9661 30.0751 13.9661 30.2485 13.8186C30.4252 13.671 30.4252 13.559 30.1144 13.3076L28.2626 11.761L28.256 11.7637Z" fill="black"/>
<path d="M24.0639 13.2676C23.5352 13.2676 23.046 13.4271 21.7759 13.9025L18.8347 14.9774V15.7717C18.8347 17.2011 17.8927 18.1165 16.5467 18.0781C16.0575 19.1884 15.2796 19.7022 14.2587 19.7022C14.1341 20.8126 13.1527 21.6069 11.9343 21.6069C10.5426 21.6069 9.56123 20.6531 9.56123 19.4216C8.57977 20.3371 8.13011 21.3263 8.09057 22.5578C8.09057 23.2311 8.25464 24.1465 8.57976 25.059C8.66484 25.3395 8.57976 25.5728 8.33973 25.5728C8.17565 25.5728 7.97511 25.4518 7.89003 25.059C7.68645 24.2262 7.44033 23.3138 7.44033 22.5578C7.44033 20.969 8.01461 19.7819 9.56426 18.5505H7.89311C7.60445 18.5505 7.44341 18.4294 7.44341 18.2316C7.44341 18.0337 7.56799 17.9126 7.89311 17.9126H11.8128C12.1409 17.9126 12.2625 18.0337 12.2625 18.2316C12.2625 18.4294 12.0984 18.5505 11.8128 18.5505H10.178V19.1854C10.178 20.2603 10.8313 20.969 11.9374 20.969C12.9552 20.969 13.6085 20.3341 13.6085 19.1854V16.9263C13.6085 16.2087 13.2044 15.7776 12.3414 15.7776H10.1416C9.8529 15.7776 9.69186 15.6565 9.69186 15.4587C9.69186 15.2608 9.81644 15.1397 10.1416 15.1397H12.4295C13.332 15.1397 14.2648 15.5768 14.2648 16.8496V19.0732C15.2826 19.0732 15.8995 18.3999 15.8995 17.328V14.5462C15.8995 13.6308 15.5349 13.1553 14.6324 13.1553H10.3846C10.096 13.1553 9.93494 13.0343 9.93494 12.8364C9.93494 12.6386 10.0595 12.5175 10.3846 12.5175H14.5929C15.8995 12.5175 16.5527 13.2351 16.5527 14.4222V17.4372C17.6192 17.4756 18.1875 16.8023 18.1875 15.7274V12.9072C18.1875 11.3569 17.285 10.527 15.7385 10.527H10.5882C10.2996 10.527 10.1385 10.406 10.1385 10.2081C10.1385 10.0103 10.2631 9.88918 10.5882 9.88918H15.8539C16.7958 9.88918 18.0173 10.2435 18.467 11.3185L23.1645 10.3292C24.1064 10.1698 24.7202 9.2927 24.5561 8.38609C24.3921 7.47066 23.4896 6.87412 22.5963 7.03357L9.27885 9.29264C8.05127 9.49049 7.31905 9.76809 6.82985 10.6452L3.60299 16.2855C2.66108 17.9097 2.33594 19.6195 2.33594 21.0872C2.33594 24.5423 4.90953 27.3152 8.33998 27.8766C11.4818 28.3904 14.5871 27.7171 16.547 24.5042C17.6135 22.7206 18.3822 21.2912 19.2846 20.1336C20.2661 18.8254 21.369 17.9483 22.7546 17.3134C24.7934 16.3596 25.6958 15.7631 25.6958 14.8949C25.6958 14.0266 25.1671 13.2707 24.0611 13.2707L24.0639 13.2676Z" fill="black"/>
</svg>
