<svg width="33" height="33" viewBox="0 0 33 33" fill="none" xmlns="http://www.w3.org/2000/svg">
<g clip-path="url(#clip0_2767_356)">
<path d="M16.4546 22.895H15.6626V18.6793H16.4546V22.895ZM16.4802 14.4636H15.6881V10.2479H16.4802V14.4636ZM16.5057 6.03213H15.7137V1.81641H16.5057V6.03213Z" fill="black"/>
<path d="M25.806 6.92347C27.1747 6.92347 28.2843 5.81388 28.2843 4.44513C28.2843 3.07639 27.1747 1.9668 25.806 1.9668C24.4372 1.9668 23.3276 3.07639 23.3276 4.44513C23.3276 5.81388 24.4372 6.92347 25.806 6.92347Z" fill="black"/>
<path d="M28.9227 7.56445H22.7396C21.0278 7.56445 19.6481 8.94415 19.6481 10.656V18.2187C19.6481 18.8064 20.1335 19.3174 20.7467 19.3174C21.3599 19.3174 21.8454 18.8319 21.8454 18.2187V11.2947C21.8454 11.1159 21.9987 10.9881 22.152 10.9881C22.3308 10.9881 22.4586 11.1414 22.4586 11.2947V30.0739C22.4586 30.9937 23.1484 31.7602 24.0171 31.7602C24.8858 31.7602 25.5756 30.9937 25.5756 30.0739V19.3685C25.5756 19.1896 25.7289 19.0619 25.8822 19.0619C26.0611 19.0619 26.1888 19.2152 26.1888 19.3685V30.0739C26.1888 30.9937 26.8787 31.7602 27.7474 31.7602C28.6161 31.7602 29.3059 30.9937 29.3059 30.0739V11.2947C29.3059 11.1159 29.4592 10.9881 29.6125 10.9881C29.7914 10.9881 29.9191 11.1414 29.9191 11.2947V18.2698C29.9191 18.8575 30.4046 19.3685 31.0178 19.3685C31.631 19.3685 32.1164 18.883 32.1164 18.2698V10.656C32.0142 8.94415 30.609 7.56445 28.9227 7.56445Z" fill="black"/>
<path d="M6.94928 6.92347C8.31803 6.92347 9.42762 5.81388 9.42762 4.44513C9.42762 3.07639 8.31803 1.9668 6.94928 1.9668C5.58054 1.9668 4.47095 3.07639 4.47095 4.44513C4.47095 5.81388 5.58054 6.92347 6.94928 6.92347Z" fill="black"/>
<path d="M10.0664 7.56445H3.85777C2.14593 7.56445 0.766235 8.94415 0.766235 10.656V18.2187C0.766235 18.8064 1.25168 19.3174 1.86488 19.3174C2.47808 19.3174 2.96352 18.8319 2.96352 18.2187V11.2947C2.96352 11.1159 3.11682 10.9881 3.27012 10.9881C3.44897 10.9881 3.57672 11.1414 3.57672 11.2947V30.0739C3.57672 30.9937 4.26657 31.7602 5.13526 31.7602C6.00396 31.7602 6.6938 30.9937 6.6938 30.0739V19.3685C6.6938 19.1896 6.8471 19.0619 7.0004 19.0619C7.1537 19.0619 7.307 19.2152 7.307 19.3685V30.0739C7.307 30.9937 7.99685 31.7602 8.86554 31.7602C9.73424 31.7602 10.4241 30.9937 10.4241 30.0739V11.2947C10.4241 11.1159 10.5774 10.9881 10.7307 10.9881C10.884 10.9881 11.0373 11.1414 11.0373 11.2947V18.2698C11.0373 18.8575 11.5227 19.3685 12.1359 19.3685C12.7491 19.3685 13.2346 18.883 13.2346 18.2698V10.656C13.1579 8.94415 11.7527 7.56445 10.0664 7.56445Z" fill="black"/>
<path d="M19.059 29.7378C18.8802 29.0735 17.9859 28.537 17.2194 29.2524L16.504 26.6463L18.0881 22.2006C18.037 22.1751 17.9604 22.2006 17.9093 22.3028L16.1208 25.5732L15.6098 24.6534V26.2886L15.7376 26.6463L15.0222 29.2524C14.2557 28.537 13.3614 29.0735 13.1826 29.7378C13.0293 30.3255 13.3103 30.9131 14.0002 31.092C14.5367 31.2453 15.1499 30.9131 15.3288 30.2999L16.0186 27.7194H16.2485L16.9384 30.2999C17.1172 30.9131 17.7304 31.2197 18.267 31.092C18.9313 30.9131 19.2379 30.3255 19.059 29.7378ZM14.7667 30.1466C14.69 30.4277 14.3834 30.6065 14.1024 30.5299C13.8213 30.4532 13.6425 30.1466 13.7191 29.8656C13.7958 29.5845 14.1024 29.4057 14.3834 29.4823C14.6645 29.559 14.8433 29.8656 14.7667 30.1466ZM16.1208 26.8762C15.9931 26.8762 15.8909 26.774 15.8909 26.6463C15.8909 26.5185 15.9931 26.4163 16.1208 26.4163C16.2485 26.4163 16.3507 26.5185 16.3507 26.6463C16.3507 26.7996 16.2485 26.8762 16.1208 26.8762ZM18.1648 30.5299C17.8837 30.6065 17.5771 30.4277 17.5005 30.1466C17.4238 29.8656 17.6027 29.559 17.8837 29.4823C18.1648 29.4057 18.4714 29.5845 18.548 29.8656C18.6247 30.1466 18.4714 30.4532 18.1648 30.5299Z" fill="black"/>
</g>
<defs>
<clipPath id="clip0_2767_356">
<rect width="32.7038" height="32.7038" fill="white"/>
</clipPath>
</defs>
</svg>
