<svg width="109" height="35" viewBox="0 0 109 35" fill="none" xmlns="http://www.w3.org/2000/svg">
<g clip-path="url(#clip0_2643_695)">
<mask id="mask0_2643_695" style="mask-type:luminance" maskUnits="userSpaceOnUse" x="-1" y="3" width="109" height="28">
<path d="M107.279 3.80078H-0.0012207V30.9304H107.279V3.80078Z" fill="white"/>
</mask>
<g mask="url(#mask0_2643_695)">
<path d="M21.5429 30.9304H5.57238C2.49975 30.9304 -0.0012207 28.4295 -0.0012207 25.3449V9.37439C-0.0012207 6.30176 2.49975 3.80078 5.57238 3.80078H21.5429C24.6274 3.80078 27.1165 6.30176 27.1165 9.37439V25.3449C27.1284 28.4295 24.6274 30.9304 21.5429 30.9304Z" fill="#0E214B"/>
<path fill-rule="evenodd" clip-rule="evenodd" d="M84.1734 12.2211C85.924 12.4592 87.1029 13.7574 86.8649 16.3179C86.2818 22.606 80.8269 29.0371 72.7524 28.8585L72.5022 28.8466L72.526 28.7989C80.4339 28.8228 85.3881 22.1773 85.924 16.2821C86.1383 13.9717 85.0784 12.7927 83.5304 12.5783C81.2438 12.2568 78.4808 13.6502 76.8134 16.0082L76.7539 16.0916L76.73 16.0559C78.4927 13.3882 81.601 11.8638 84.1734 12.2211ZM100.406 12.1377C105.766 12.4473 107.313 16.3655 107.278 18.5093C107.182 24.2615 102.705 28.2987 95.0465 28.8347L94.8085 28.8466L94.8203 28.8109C101.955 28.263 106.349 23.654 106.444 17.9495C106.48 15.9963 105.146 12.6498 100.513 12.1972L100.371 12.1853L100.406 12.1377ZM72.0854 5.89716C72.8833 6.94519 71.8949 9.077 71.3351 10.5061L71.3113 10.5656L66.8929 22.0463C66.5951 22.8086 66.2498 23.666 66.1665 24.5949C65.9759 26.7505 67.8695 28.6084 71.6091 28.7989L71.7281 28.8109L71.7162 28.8466C67.3693 28.7156 65.2851 26.5719 65.4876 24.2019C65.5709 23.2729 65.8567 22.5227 66.1307 21.8081L66.1665 21.7128L70.561 10.3156C70.6086 10.1726 70.6563 10.0416 70.7158 9.89869L70.7635 9.75582C70.7873 9.68435 70.8111 9.62477 70.8468 9.55337L70.8944 9.42232C71.3708 8.15995 71.7638 6.99283 71.1088 6.20681L71.0731 6.17108V6.11154L72.0854 5.89716ZM99.6203 12.09L99.6077 12.1258C92.9384 12.6617 88.0801 17.3183 87.973 22.9872C87.9367 24.9403 89.3063 28.3583 93.9156 28.7513L94.0583 28.7632L94.0464 28.7989C88.6751 28.4893 87.1274 24.5354 87.1628 22.3917C87.2582 16.6157 92.1527 12.5545 99.6203 12.09ZM82.8634 12.9952C84.2806 13.1976 85.1856 14.2338 84.9949 16.2702C84.4835 21.7486 79.6002 28.5608 72.7643 28.7394H72.5618L72.5737 28.7036C78.8142 28.3225 83.6256 21.3317 84.102 16.2464C84.2687 14.46 83.447 13.5311 82.2322 13.3644C80.4697 13.1262 78.3021 14.2695 76.9206 16.1393L76.8611 16.2107L76.8373 16.175C78.3378 13.9717 80.8269 12.7094 82.8634 12.9952ZM100.358 12.233C104.479 12.5664 105.741 15.5318 105.717 17.3421C105.622 22.8918 101.394 28.1559 95.0709 28.7275L94.8802 28.7394L94.892 28.7036C100.597 28.1201 104.836 22.2845 104.932 16.7704C104.955 15.1507 103.777 12.6736 100.441 12.2806L100.346 12.2687L100.358 12.233ZM74.1696 5.46842C74.8484 6.38545 73.6217 9.10079 73.1691 10.256L73.1454 10.3037L68.3578 22.6775C68.0601 23.404 67.6313 24.4996 67.5479 25.4286C67.3931 27.1912 68.9056 28.5251 71.6804 28.7036H71.7638L71.7519 28.7394C68.3935 28.6084 66.6904 27.0007 66.8572 25.0237C66.9406 24.0947 67.2979 23.1777 67.5956 22.4393L67.6313 22.3441L72.2641 10.3275C72.7643 9.0889 73.7765 6.87374 73.1096 5.80189L73.0739 5.75425V5.6947L74.1696 5.46842ZM99.5723 12.1972L99.5604 12.233C94.0228 12.8165 89.6396 18.7593 89.5443 24.1662C89.5207 25.7859 90.5089 28.2987 93.9983 28.6679L94.1055 28.6798L94.0937 28.7156C89.973 28.4417 88.6987 25.381 88.735 23.5708C88.8185 18.009 93.3671 12.6617 99.5723 12.1972ZM76.3132 5.02778C76.6586 6.04008 75.2414 9.30324 74.9556 10.0535L74.9437 10.0773L69.8345 23.2849C69.5368 24.0471 69.0604 25.2976 68.977 26.2265C68.8937 27.2031 69.3819 27.8938 70.3705 28.2511C71.0136 28.4893 71.5852 28.5727 71.7996 28.5965H71.8234L71.8115 28.6322C69.4058 28.4655 68.1196 27.3818 68.2625 25.7978C68.3339 24.9284 68.7746 23.797 69.0842 23.0348L69.12 22.9514L74.11 10.0416C74.4434 9.18417 75.7893 6.17108 75.3009 5.32551L75.2771 5.28979V5.23024L76.3132 5.02778ZM100.311 12.3402C103.193 12.6617 104.145 14.7101 104.122 16.175C104.026 21.5223 100.049 27.9772 95.0709 28.6203L94.9156 28.6322L94.9393 28.5965C99.2862 28.0129 103.241 20.903 103.336 15.6033C103.36 14.3171 102.573 12.7451 100.371 12.3759L100.287 12.364L100.311 12.3402ZM81.601 13.7812C82.6252 13.9241 83.3159 14.722 83.1731 16.2345C82.7563 20.7839 78.5284 27.7867 72.7999 28.5965L72.6213 28.6203L72.6332 28.5846C77.8972 27.477 81.8511 20.3433 82.2441 16.175C82.3632 14.9483 81.8154 14.2695 80.9341 14.1504C79.7075 13.9836 78.1473 14.8292 77.0159 16.2702L76.9564 16.3417L76.9326 16.3059C78.1116 14.6149 80.0409 13.5668 81.601 13.7812ZM34.3207 7.56448C34.3326 7.57639 34.3445 7.57639 34.3564 7.5883L34.3922 7.61212C34.9519 8.02895 35.5831 8.63632 36.1785 11.3636L36.2024 11.4589L39.8942 28.5846H39.0606C39.0606 28.5846 35.4044 11.6137 35.3925 11.5899C34.8685 9.19607 34.2016 8.15995 32.8796 7.61212L32.8201 7.5883V7.55257L34.3207 7.56448ZM37.0956 7.56448C37.1075 7.65976 37.1194 7.74313 37.1313 7.8384L37.1432 7.90985C37.2385 8.61252 37.3695 9.31514 37.7982 11.1612L37.8221 11.2564L41.5616 28.5965H40.7279L37.0003 11.3159C36.512 9.31514 36.3334 8.38623 35.7379 7.63593L35.7021 7.60021V7.56448H37.0956ZM99.525 12.2925L99.5005 12.3283C95.3089 12.9118 91.1882 20.1527 91.0928 25.3214C91.0692 26.6076 91.8549 28.2392 94.0583 28.5489L94.13 28.5608L94.1055 28.5965C91.2599 28.3583 90.2709 26.1908 90.2945 24.7141C90.4143 19.45 94.6059 12.8165 99.525 12.2925ZM52.9113 14.6625C53.3758 14.6625 53.6497 14.9245 53.6735 15.4247C53.6973 15.8653 53.3996 16.7704 53.0422 17.6994L52.9828 17.8542L52.9113 18.0329C52.6373 18.7236 52.3515 19.4024 52.1491 19.9026L52.1133 19.9741L48.6715 28.5846H47.814L51.2916 19.9145C51.7561 18.7831 52.9113 16.1631 52.8755 15.4604C52.8636 15.1269 52.6849 14.996 52.423 14.996C51.8037 14.996 50.7199 16.5442 50.0172 18.1162L49.9815 18.1877H49.9339C50.6485 16.3893 51.8275 14.6625 52.9113 14.6625ZM53.8282 14.0313C54.6857 14.0313 55.1741 14.5672 55.2217 15.3294C55.2813 16.4727 54.3404 18.6402 53.7807 20.0098L53.7449 20.0813L50.3983 28.5846H49.5409L52.9589 20.0098C53.4471 18.7117 54.4833 16.3893 54.4357 15.3532C54.3999 14.722 54.0188 14.3528 53.3639 14.3528C51.8751 14.3528 50.6366 16.2227 49.8982 18.1043L49.8744 18.1758H49.8267C50.5175 16.044 51.9704 14.0313 53.8282 14.0313ZM55.6743 12.7332C57.3296 12.7332 58.2348 13.7931 58.3062 15.1627C58.3896 16.7228 57.8417 18.2353 57.2463 19.7478L57.151 19.9741L57.0795 20.1408L57.0081 20.3075L53.8402 28.5846H52.9828L56.2101 20.248C56.8176 18.6164 57.5798 16.83 57.4964 15.1984C57.4368 13.9717 56.627 13.0667 55.174 13.0667C52.1372 13.0667 50.3983 15.4485 49.6242 18.1043L49.6004 18.1877H49.5647C50.2793 15.2937 52.2563 12.7332 55.6743 12.7332ZM54.7572 13.3644C56.0077 13.3644 56.7104 14.1623 56.7699 15.2222C56.8414 16.687 56.0315 18.5569 55.4479 20.0694L55.4122 20.1646L52.1491 28.5727H51.2558L54.5786 20.1289C55.1621 18.664 56.0435 16.568 55.972 15.2818C55.9243 14.3528 55.3289 13.6859 54.2689 13.6859C52.0538 13.6859 50.5175 15.8177 49.7553 18.0924L49.7314 18.1639H49.6957C50.4222 15.6986 52.0657 13.3644 54.7572 13.3644ZM64.642 12.1019C65.7377 12.1019 66.6309 12.8046 66.7023 14.329C66.8691 17.4492 64.0585 19.9979 60.9739 20.4981L60.8786 20.51L60.8548 20.4743C63.4987 19.8788 66.1188 17.485 65.964 14.6625C65.8925 13.3286 65.1065 12.6975 64.1418 12.6975C62.3673 12.6975 60.8191 14.198 59.8545 16.1869C59.8425 16.2821 59.8425 16.3893 59.8306 16.4965C60.712 14.6625 62.0815 13.2572 63.6178 13.2572C64.4753 13.2572 65.1303 13.8169 65.1898 14.9841C65.3209 17.4136 63.0462 19.7835 60.8548 20.379L60.7834 20.3909L60.7477 20.3552C62.5579 19.6883 64.5587 17.4255 64.4515 15.3056C64.4038 14.3409 63.8441 13.8408 63.1176 13.8408C61.7838 13.8408 60.5928 15.1865 59.7711 16.8896C59.7472 17.0205 59.7353 17.1396 59.7115 17.2707C60.438 15.6867 61.498 14.4124 62.5936 14.4124C63.2486 14.4124 63.6774 14.8411 63.7131 15.639C63.8084 17.4136 62.2125 19.5692 60.7358 20.2718L60.6881 20.2956L60.6524 20.2599C61.7361 19.5573 63.0462 17.4373 62.9747 15.9725C62.939 15.3771 62.6294 15.0079 62.1053 15.0079C61.224 15.0079 60.2951 16.2583 59.6162 17.7232C59.5567 17.9614 59.4972 18.1877 59.4138 18.4259C60.045 16.961 60.8905 15.5795 61.5575 15.5795C61.9862 15.5795 62.1649 15.8772 62.1887 16.3059C62.2483 17.3898 61.3908 19.4262 60.6167 20.1527L60.5809 20.1884L60.5452 20.1527C61.224 18.938 61.5337 17.5088 61.4742 16.6513C61.4503 16.4251 61.3669 16.1631 61.0692 16.1631C60.712 16.1631 60.0807 17.2111 59.5091 18.3425L59.4495 18.4735L59.39 18.6045C59.3661 18.6521 59.3423 18.6878 59.3304 18.7355L59.2947 18.7951C59.1399 19.2476 58.9612 19.7121 58.7826 20.2003L58.7112 20.3909L55.6028 28.5608H54.7453L57.8775 20.3195C58.5444 18.5569 59.1875 17.0324 59.0923 15.0674C59.0089 13.5668 57.9966 12.4116 56.1506 12.4116C52.3277 12.4116 50.3269 15.0793 49.5647 18.0686L49.5409 18.1639H49.5052C50.2078 14.9364 52.3396 12.09 56.627 12.09C58.6754 12.09 59.7949 13.3882 59.8902 15.0436C59.9021 15.3056 59.9021 15.5557 59.9021 15.7939C60.9263 13.674 62.6532 12.1019 64.642 12.1019ZM78.4808 4.58713C78.7666 4.89677 76.7896 9.73203 76.6229 10.1726V10.1845L71.2993 23.928C71.0374 24.6307 70.4419 26.1789 70.3586 27.0364C70.2871 27.9176 70.9421 28.3464 71.8115 28.5131L71.8591 28.5251L71.8353 28.5608C70.5372 28.3583 69.5606 27.7509 69.6559 26.6434C69.7273 25.774 70.2275 24.452 70.5252 23.666L70.5491 23.5946L75.7535 10.1131C75.8845 9.74393 76.2775 8.80307 76.6348 7.77885L76.6943 7.60021C77.0516 6.576 77.3732 5.51606 77.3732 4.90869V4.86105V4.81341L78.4808 4.58713ZM100.263 12.4473C101.93 12.7213 102.573 13.8884 102.549 15.0198C102.454 20.1646 98.7385 27.8581 95.0827 28.5251L94.9756 28.537L94.9992 28.5012C97.9646 27.9534 101.657 19.5334 101.752 14.46C101.764 13.5192 101.371 12.8165 100.322 12.5188L100.263 12.5069V12.4473ZM80.291 14.5553C80.9817 14.6506 81.3985 15.2103 81.3152 16.1512C80.9817 19.7954 77.0397 27.1792 72.8118 28.4655L72.6809 28.5012L72.7047 28.4536C76.4085 26.8458 80.1124 19.3667 80.4101 16.1393C80.4697 15.4366 80.148 14.996 79.6598 14.9364C78.9214 14.8292 77.8853 15.4723 77.0992 16.4012L77.0516 16.4608L77.0278 16.4251C77.9567 15.1984 79.2668 14.4124 80.291 14.5553ZM99.4769 12.3997L99.4532 12.4354C96.5832 13.019 92.7485 21.5938 92.665 26.4766C92.6532 27.4294 92.9983 28.2154 94.13 28.4417L94.1891 28.4536L94.1654 28.4893C92.427 28.2987 91.8549 27.0126 91.8785 25.8812C91.9738 20.8554 95.9165 12.9237 99.4769 12.3997ZM80.7197 4.14648L72.7643 24.5711C72.4665 25.3333 71.7877 26.8934 71.7162 27.7629C71.6924 28.0963 71.7996 28.3464 71.9068 28.4178L71.9187 28.4298L71.8949 28.4893C71.8234 28.4655 71.7757 28.4417 71.7162 28.4178C71.347 28.2392 71.0612 27.7867 71.0731 27.4175C71.1088 26.5719 71.7162 25.0594 72.0139 24.3091L72.0377 24.2496L77.4565 10.2322C77.5042 10.0892 78.1116 8.58872 78.6713 7.13574L78.7308 6.96901C79.2072 5.71853 79.6479 4.5514 79.636 4.38467V4.37276L80.7197 4.14648ZM39.3822 7.56448C39.1678 8.26714 39.0368 9.29135 39.5608 11.4946L39.5846 11.6018L42.6811 26.2623L42.1333 27.4175L38.6557 11.2207C38.2984 9.64865 38.2032 8.83877 38.1793 8.1004V8.00513C38.1793 7.90985 38.1793 7.81458 38.1793 7.7193V7.62403V7.57639L39.3822 7.56448ZM41.8117 7.56448V7.60021C41.0495 8.27905 40.847 9.4819 41.2877 11.7566L41.3115 11.8519L43.8005 23.9161L43.2408 25.0832L40.4302 11.6255C39.9657 9.35092 40.0848 8.45769 40.4778 7.60021L40.4898 7.56448H41.8117ZM45.2535 7.56448V7.60021C43.1217 8.00513 42.5025 9.19607 43.0264 11.9114L44.9081 21.57L44.3484 22.749L42.1928 11.9353C41.5258 8.77927 42.6691 7.88604 43.2528 7.5883L43.2885 7.57639L45.2535 7.56448ZM55.5551 7.56448V7.60021C52.3277 8.57674 50.8747 10.4466 48.3976 15.0912L48.3262 15.2341L48.2666 15.1984C50.446 10.5418 51.494 8.62442 53.209 7.5883L53.2566 7.55257C53.2566 7.56448 55.5551 7.56448 55.5551 7.56448ZM51.6846 7.56448V7.60021C51.4107 8.00513 51.1725 8.42196 50.8986 8.96982L50.8509 9.077C50.2912 10.2084 49.6004 11.8757 48.2666 15.0555L48.219 15.1746L48.1594 15.1388C49.4814 11.447 50.1602 9.63675 50.0053 7.69549V7.62403V7.57639C49.9934 7.56448 51.6846 7.56448 51.6846 7.56448ZM48.6834 7.56448C49.8387 8.73159 49.4337 10.6609 48.1475 14.9602L48.1117 15.0912L48.0522 15.0555C49.2789 10.1964 48.8859 8.29095 47.0876 7.62403L47.028 7.60021V7.56448H48.6834Z" fill="#0E214B"/>
<path d="M16.947 15.1383L16.9946 15.174C18.1379 11.3868 18.5071 9.71946 17.4947 8.69531H16.0537V8.73101C17.6615 9.29076 18.0307 10.9104 16.947 15.1383Z" fill="#8EC089"/>
<path fill-rule="evenodd" clip-rule="evenodd" d="M21.4932 8.69531C19.9688 9.57659 19.0636 11.2201 17.1462 15.2692L17.1939 15.305C19.3972 11.2082 20.6476 9.57659 23.494 8.73101V8.69531H21.4932Z" fill="#2474DE"/>
<path d="M17.0417 15.2097L17.0894 15.2454C18.8997 10.9938 19.3641 9.83862 20.1144 8.73101V8.69531H18.6495V8.74291C18.8044 10.4341 18.2089 11.9942 17.0417 15.2097Z" fill="#E85F24"/>
<path fill-rule="evenodd" clip-rule="evenodd" d="M4.99051 8.69531H3.69238V8.73101C4.88332 9.19549 5.45498 10.0887 5.93135 12.1728C5.93135 12.1966 9.12308 26.7975 9.12308 26.7975H9.84959L6.634 12.0537C6.07427 9.52891 5.4907 9.06443 4.99051 8.69531Z" fill="#76C5F7"/>
<path fill-rule="evenodd" clip-rule="evenodd" d="M11.7913 25.7733L12.2677 24.7849L9.57622 12.1609C9.09984 10.1958 9.20701 9.30266 9.40946 8.69531H8.36147C8.34956 9.49321 8.38529 10.1482 8.76642 11.8274L11.7913 25.7733Z" fill="#2474DE"/>
<path d="M7.40764 8.69531H6.19287V8.73101C6.74071 9.38604 6.89553 10.1839 7.32427 11.9347L10.5636 26.8094H11.2901L8.05074 11.8751C7.58627 9.96959 7.51482 9.43363 7.40764 8.69531Z" fill="#318EEE"/>
<path d="M12.7535 23.7726L13.2418 22.7722L11.0744 12.3872C10.6694 10.3745 10.848 9.32646 11.515 8.73101V8.69531H10.3598C10.0024 9.44553 9.89527 10.1958 10.3003 12.1966L12.7535 23.7726Z" fill="#E85F24"/>
<path d="M11.8379 12.4585C11.2543 9.68358 12.3023 8.94526 12.7906 8.70703H14.5056V8.74273C12.6477 9.10003 12.1118 10.1124 12.5644 12.4585L14.2078 20.7712L13.7196 21.7836L11.8379 12.4585Z" fill="#8EC089"/>
</g>
</g>
<defs>
<clipPath id="clip0_2643_695">
<rect width="108.018" height="34.8446" fill="white"/>
</clipPath>
</defs>
</svg>
