<svg width="33" height="27" viewBox="0 0 33 27" fill="none" xmlns="http://www.w3.org/2000/svg">
<path d="M32.3324 11.246L26.0195 6.6924V2.00082C26.0195 1.41437 25.5365 0.931417 24.9501 0.931417C24.3636 0.931417 23.8807 1.41437 23.8807 2.00082V5.14004L17.0158 0.206982C16.6363 -0.0689939 16.1189 -0.0689939 15.7739 0.206982L0.457251 11.246C0.215773 11.4185 0.0777849 11.66 0.00879099 11.9359C-0.0257059 12.2119 0.0432879 12.4879 0.181276 12.7294C0.526245 13.2123 1.21618 13.3158 1.66464 12.9708L4.07943 11.2115V25.5277C4.07943 26.1142 4.56239 26.5971 5.14883 26.5971H27.5373C28.1238 26.5971 28.6067 26.1142 28.6067 25.5277V11.246L31.0215 13.0053C31.2285 13.1778 31.539 13.2123 31.815 13.1778C32.0909 13.1433 32.3669 12.9708 32.5049 12.7639C32.6774 12.5224 32.7464 12.2464 32.6774 11.9704C32.6084 11.6945 32.5739 11.4185 32.3324 11.246ZM26.5024 24.4928H19.6375L20.3275 21.4226C20.362 21.3536 20.3275 21.2501 20.2585 21.2156L17.1538 19.1803C17.0503 19.1113 17.0503 19.0078 17.0848 18.9043L19.3271 15.4201C19.3616 15.3511 19.3616 15.2476 19.2926 15.1786L16.6363 12.6949C16.6018 12.6604 16.5673 12.5914 16.5673 12.5224L17.4297 8.21027C17.4642 8.00329 17.1883 7.8998 17.0848 8.07228L13.8421 12.9019C13.8076 12.9708 13.8076 13.0743 13.8766 13.1433L15.7739 15.2131C15.8429 15.2821 15.8429 15.3856 15.7739 15.4546L12.4967 19.1803C12.4277 19.2493 12.4277 19.3873 12.5312 19.4563L15.4634 21.5261C15.5324 21.5951 15.5669 21.6986 15.5324 21.7676L14.187 24.4583H6.28723V9.69364L6.35623 9.65914L16.3948 2.38029L26.5024 9.69364V24.4928Z" fill="black"/>
</svg>
